<svg width="28" height="28" viewBox="0 0 28 28" fill="none" xmlns="http://www.w3.org/2000/svg">
<g id="base_ui_ico_reply_left">
<g id="Group">
<path id="Vector" d="M22.4494 5.54916C21.3379 4.42473 20.0143 3.53204 18.5554 2.92281C17.0964 2.31358 15.5311 1.99992 13.95 2C12.369 2.00008 10.8037 2.3139 9.34477 2.92328C7.88587 3.53265 6.56238 4.42548 5.45097 5.55002C4.33957 6.67457 3.46234 8.00848 2.8701 9.47449C2.27786 10.9405 1.9824 12.5095 2.00081 14.0905C2.01923 15.6715 2.35116 17.2331 2.97738 18.685C3.6036 20.1368 4.51167 21.4499 5.64896 22.5482C7.8804 24.7665 10.9012 26.008 14.0475 26H14.1193C16.483 25.9861 18.7894 25.2716 20.747 23.9468C22.7046 22.622 24.2254 20.7465 25.1171 18.5573C26.0087 16.3681 26.2312 13.9636 25.7564 11.648C25.2815 9.33238 24.1307 7.21068 22.4494 5.54916ZM18.8333 4.7826C20.7536 5.77907 22.3188 7.34508 23.3142 9.26598L21.1815 10.4965L20.9374 10.0767C20.5817 9.45955 20.1457 8.89237 19.6407 8.39007C19.1546 7.91285 18.6106 7.49836 18.0215 7.15628L17.6029 6.91107L18.8333 4.7826ZM13.9868 3.62613C14.168 3.62517 14.3492 3.62886 14.5302 3.63718V6.08487L14.0453 6.08707C14.0232 6.08707 14.0011 6.08707 13.9791 6.08487C12.5999 6.09281 11.2463 6.45815 10.0504 7.14524L9.62956 7.38824L8.41241 5.27854C10.0745 4.20653 12.009 3.6331 13.9868 3.62613ZM3.62332 14.1117C3.60715 12.0985 4.17829 10.1244 5.26681 8.43094L7.36424 9.64153L7.11684 10.0646C6.40984 11.2775 6.03605 12.6558 6.03333 14.0597V14.5457H3.63768C3.63026 14.4012 3.62474 14.2564 3.62332 14.1117ZM9.26287 23.3071C7.34827 22.3118 5.78703 20.7505 4.79188 18.8358L6.85728 17.6429L7.10027 18.0649C7.79739 19.2879 8.81113 20.3006 10.0349 20.9963L10.4568 21.2393L9.26287 23.3071ZM14.1094 24.4757C13.9226 24.4758 13.7359 24.4713 13.5494 24.4624V22.07L14.0696 22.0678C15.4627 22.0586 16.829 21.6846 18.0325 20.9831L18.4556 20.7368L19.665 22.8332C18.0071 23.8982 16.0798 24.468 14.1094 24.4757ZM14.0586 20.264C13.246 20.2688 12.4405 20.1135 11.688 19.807C10.9355 19.5004 10.2507 19.0487 9.67277 18.4775C9.09484 17.9063 8.63506 17.2268 8.31969 16.4779C8.00432 15.729 7.83954 14.9253 7.83476 14.1128C7.82997 13.3002 7.98527 12.4946 8.2918 11.7421C8.59832 10.9895 9.05006 10.3047 9.62122 9.72671C10.1924 9.14875 10.8718 8.68895 11.6207 8.37356C12.3695 8.05818 13.1731 7.89339 13.9857 7.8886C15.6267 7.87893 17.2043 8.52158 18.3715 9.67517C19.5387 10.8287 20.1998 12.3988 20.2095 14.0399C20.2192 15.6809 19.5766 17.2586 18.423 18.4259C17.2695 19.5932 15.6996 20.2543 14.0586 20.264ZM20.7076 18.4702L20.9506 18.0494C21.6487 16.8358 22.0147 15.4598 22.012 14.0597L22.0109 13.5715H24.4596C24.5649 15.7324 23.9905 17.872 22.8172 19.6896L20.7076 18.4702ZM17.255 12.3996C17.2763 12.3975 17.2978 12.4005 17.3176 12.4085C17.3375 12.4165 17.3551 12.4292 17.369 12.4454C17.3829 12.4617 17.3927 12.4811 17.3974 12.502C17.4022 12.5229 17.4018 12.5446 17.3964 12.5653L16.4355 16.3064C16.4258 16.3442 16.4039 16.3776 16.373 16.4014C16.3422 16.4252 16.3043 16.4381 16.2654 16.4378H11.664C11.6253 16.4378 11.5876 16.4249 11.557 16.4011C11.5264 16.3773 11.5046 16.344 11.495 16.3064L10.533 12.5653C10.5276 12.5446 10.5272 12.5229 10.532 12.502C10.5367 12.4811 10.5465 12.4617 10.5604 12.4454C10.5743 12.4292 10.5919 12.4165 10.6118 12.4085C10.6316 12.4005 10.6531 12.3975 10.6744 12.3996C11.0037 12.4332 11.3165 12.5601 11.5761 12.7653C11.8357 12.9706 12.0314 13.2457 12.1401 13.5583L12.1423 13.5638C12.1656 13.6302 12.2089 13.6877 12.2663 13.7285C12.3236 13.7692 12.3922 13.7912 12.4626 13.7913H12.4957C12.5824 13.7913 12.6666 13.762 12.7347 13.7084C12.8029 13.6547 12.8509 13.5796 12.8712 13.4953C13.022 12.8851 13.2503 12.2968 13.5505 11.7446L13.8288 11.2332C13.844 11.2056 13.8663 11.1826 13.8935 11.1667C13.9206 11.1508 13.9516 11.1425 13.983 11.1427C14.0145 11.143 14.0453 11.1517 14.0722 11.168C14.0991 11.1843 14.1211 11.2076 14.1359 11.2354L14.4087 11.7501C14.6994 12.3012 14.9201 12.8863 15.0659 13.492C15.0857 13.5768 15.1336 13.6525 15.2017 13.7068C15.2698 13.7611 15.3543 13.7909 15.4414 13.7913H15.4624C15.5342 13.7911 15.6041 13.7687 15.6626 13.7272C15.7211 13.6856 15.7654 13.627 15.7893 13.5594C15.8978 13.2463 16.0935 12.9708 16.3534 12.7653C16.6133 12.5598 16.9254 12.4329 17.255 12.3996Z" fill="#1BAE72"/>
</g>
</g>
</svg>
