<svg width="28" height="24" viewBox="0 0 28 24" fill="none" xmlns="http://www.w3.org/2000/svg">
<g id="Frame">
<g id="Group">
<path id="Vector" d="M25.3485 18.3595C22.859 19.5042 18.6925 21.4114 17.0577 22.1002C16.7697 22.2216 16.4556 22.2851 16.1373 22.2863C15.8191 22.2875 15.5045 22.2263 15.2153 22.1072L9.29299 19.6694C7.96336 19.122 7.57824 18.8393 6.11542 18.8393H3.1243C2.50277 18.8393 2 17.7622 2 16.4334C2 15.1035 2.50277 14.0265 3.1243 14.0265C3.1243 14.0265 5.16426 14.0702 5.86792 13.8941C6.67591 13.691 8.01331 13.3028 8.70032 13.247C9.89344 13.1515 11.3496 13.1296 13.5372 14.4644C14.061 14.785 14.6415 15.1164 15.2419 15.4091C15.8046 15.6828 16.384 15.9267 16.9778 16.1397L18.0577 16.5289C18.2729 16.6024 18.4648 16.722 18.6167 16.8773C18.7686 17.0326 18.8758 17.2188 18.9289 17.4198C18.9511 17.5114 18.9578 17.605 18.9511 17.6985L18.9489 17.7184C18.945 17.7556 18.9387 17.7925 18.93 17.8289L18.9234 17.8608C18.912 17.9045 18.8972 17.9474 18.879 17.9892C18.7804 18.1879 18.6175 18.3555 18.4115 18.4703C18.2056 18.5851 17.9659 18.6419 17.7236 18.6332C17.5307 18.6326 17.3397 18.5988 17.1609 18.5337L14.0222 17.4039C14.0222 17.4039 12.4872 16.7638 11.3951 16.6474C11.3949 16.989 11.5113 17.3224 11.7285 17.603C11.9457 17.8836 12.2535 18.0979 12.6104 18.2171C12.9722 18.3366 13.2852 18.458 13.4428 18.5237L13.4761 18.5377L13.5094 18.5496L16.647 19.6804C16.9889 19.8038 17.3551 19.8675 17.7236 19.8675C18.2408 19.8769 18.7491 19.7467 19.1828 19.4938C19.6164 19.2408 19.9552 18.8768 20.1553 18.4491C20.1886 18.3764 20.2153 18.3017 20.2386 18.2261L24.2641 16.4344C24.5471 16.3087 24.8738 16.288 25.1737 16.3766C25.4736 16.4653 25.7226 16.6562 25.8668 16.9082C25.939 17.034 25.9829 17.1714 25.9959 17.3125C26.0089 17.4536 25.9908 17.5956 25.9425 17.7304C25.8943 17.8652 25.8169 17.9901 25.7148 18.0981C25.6126 18.206 25.4878 18.2948 25.3473 18.3595H25.3485ZM19.6692 7.56823C19.6631 7.60569 19.6421 7.6399 19.6101 7.66459C19.5781 7.68927 19.5372 7.70277 19.495 7.70261H18.2375C18.1279 8.13932 17.9353 8.55585 17.6681 8.93393L18.5593 9.73324C18.5893 9.75982 18.6075 9.79516 18.6108 9.83281C18.614 9.87046 18.6021 9.9079 18.5771 9.9383C18.2552 10.3225 17.8734 10.6649 17.4439 10.9536C17.4098 10.9762 17.3677 10.9869 17.3255 10.9838C17.2833 10.9807 17.2437 10.9639 17.2142 10.9367L16.3252 10.1394C15.9034 10.3783 15.4384 10.5515 14.9511 10.648V11.7778C14.9511 11.8157 14.936 11.8524 14.9086 11.8812C14.8811 11.9101 14.8431 11.9292 14.8013 11.9351C14.2705 12.0026 13.7317 12.0026 13.2009 11.9351C13.1588 11.9293 13.1205 11.9102 13.093 11.8811C13.0654 11.852 13.0505 11.815 13.051 11.7768V10.65C12.564 10.5515 12.0996 10.3784 11.6781 10.1384L10.7869 10.9377C10.7572 10.9648 10.7176 10.9813 10.6753 10.9842C10.6331 10.9872 10.5911 10.9763 10.5571 10.9536C10.1286 10.6647 9.74788 10.3229 9.42618 9.9383C9.40112 9.90775 9.38912 9.87014 9.39238 9.83232C9.39564 9.7945 9.41394 9.75899 9.44394 9.73225L10.3341 8.93393C10.0668 8.55599 9.87454 8.13939 9.7658 7.70261H8.5072C8.46488 7.70253 8.42401 7.68882 8.39202 7.66397C8.36004 7.63912 8.33907 7.60479 8.33295 7.56723C8.25778 7.09148 8.25778 6.6086 8.33295 6.13284C8.33934 6.0953 8.36057 6.06107 8.39276 6.0364C8.42496 6.01173 8.46597 5.99827 8.50831 5.99846H9.7658C9.87568 5.56048 10.0677 5.1444 10.3352 4.76714L9.44394 3.96683C9.41402 3.94026 9.39577 3.90492 9.39251 3.86727C9.38925 3.82962 9.4012 3.79217 9.42618 3.76178C9.74804 3.37755 10.1298 3.03513 10.5583 2.74646C10.5925 2.72383 10.6348 2.71309 10.6772 2.7162C10.7196 2.71931 10.7594 2.73606 10.7891 2.76338L11.6781 3.5607C12.0999 3.32181 12.5649 3.1496 13.0521 3.05205V1.92226C13.0522 1.88434 13.0672 1.84766 13.0947 1.81883C13.1222 1.79 13.1602 1.77091 13.202 1.76498C13.7329 1.6978 14.2716 1.69813 14.8024 1.76598C14.8443 1.77171 14.8824 1.79075 14.9099 1.81962C14.9375 1.8485 14.9525 1.88528 14.9523 1.92325V3.05006C15.4395 3.1496 15.9034 3.32181 16.3252 3.5617L17.2164 2.76238C17.2461 2.73529 17.2857 2.71875 17.3279 2.71583C17.3702 2.7129 17.4122 2.72378 17.4461 2.74646C17.8746 3.03513 18.2552 3.37755 18.5771 3.76178C18.6019 3.79241 18.6138 3.82997 18.6105 3.86774C18.6073 3.9055 18.5891 3.94099 18.5593 3.96783L17.6692 4.76615C17.9356 5.1444 18.1287 5.56148 18.2375 5.99846H19.4972C19.5393 5.99871 19.5799 6.01235 19.6118 6.03697C19.6437 6.06158 19.6649 6.09556 19.6714 6.13284C19.7468 6.60892 19.7468 7.09215 19.6714 7.56823H19.6692ZM16.3696 6.4454C16.3134 6.16377 16.1955 5.89493 16.0227 5.65444C15.8499 5.41396 15.6256 5.20661 15.3629 5.04439C15.1001 4.88218 14.8041 4.76834 14.4919 4.70945C14.1797 4.65056 13.8576 4.64779 13.5443 4.70132C13.2309 4.75484 12.9325 4.86359 12.6663 5.02126C12.4001 5.17893 12.1715 5.3824 11.9936 5.61988C11.8157 5.85736 11.6921 6.12413 11.6299 6.40474C11.5678 6.68536 11.5683 6.97424 11.6315 7.25467C11.7512 7.81831 12.1156 8.31623 12.6446 8.6389C13.1736 8.96157 13.8238 9.08256 14.4523 8.97524C15.0807 8.86792 15.6359 8.5411 15.9957 8.06666C16.3554 7.59223 16.4903 7.00904 16.3707 6.4454H16.3696Z" fill="#1BAE72"/>
</g>
</g>
</svg>
