<svg width="28" height="28" viewBox="0 0 28 28" fill="none" xmlns="http://www.w3.org/2000/svg">
<g id="base_ui_ico_reply_left">
<g id="Group">
<path id="Vector" d="M10.9372 8.30427V2.21211C10.9374 2.1702 10.9256 2.12919 10.9033 2.09429C10.8811 2.0594 10.8494 2.03219 10.8123 2.01613C10.7752 2.00007 10.7343 1.99588 10.695 2.0041C10.6556 2.01232 10.6194 2.03257 10.5911 2.06228L0.0591553 13.0506C0.0212632 13.0905 0 13.1443 0 13.2005C0 13.2566 0.0212632 13.3105 0.0591553 13.3503L10.5898 24.3387C10.6181 24.3684 10.6543 24.3886 10.6937 24.3968C10.7331 24.4051 10.7739 24.4009 10.811 24.3848C10.8481 24.3688 10.8798 24.3416 10.902 24.3067C10.9243 24.2718 10.9361 24.2308 10.936 24.1888V18.098C18.223 18.1101 24.5345 21.2819 27.6281 25.9105C27.6537 25.9479 27.6903 25.9757 27.7322 25.9898C27.7742 26.0038 27.8194 26.0034 27.8611 25.9885C27.9029 25.9737 27.9389 25.9452 27.9639 25.9073C27.9889 25.8694 28.0015 25.8241 27.9999 25.7781C27.8108 21.1498 25.9426 16.7696 22.7739 13.525C19.6052 10.2804 15.3729 8.41412 10.9347 8.30427H10.9372Z" fill="#1BAE72"/>
</g>
</g>
</svg>
