<svg width="46" height="34" viewBox="0 0 46 34" fill="none" xmlns="http://www.w3.org/2000/svg">
<g clip-path="url(#clip0_301_503)">
<path d="M20.1307 21.0011H17.8304C17.8304 16.4686 19.3435 13.1036 22.3318 10.9786H15.0432V9.0011H25.0432V11.7236L24.5301 12.0161C21.6146 13.6886 20.1307 16.7111 20.1307 21.0011Z" fill="#F9F9F8"/>
</g>
<g clip-path="url(#clip1_301_503)">
<path d="M7.0847 19.0011H5.70453C5.70453 15.9794 6.6124 13.7361 8.4054 12.3194H4.03223V11.0011H10.0322V12.8161L9.72436 13.0111C7.97508 14.1261 7.0847 16.1411 7.0847 19.0011Z" fill="#F9F9F8"/>
</g>
<g clip-path="url(#clip2_301_503)">
<path d="M33.0847 19.0011H31.7045C31.7045 15.9794 32.6124 13.7361 34.4054 12.3194H30.0322V11.0011H36.0322V12.8161L35.7244 13.0111C33.9751 14.1261 33.0847 16.1411 33.0847 19.0011Z" fill="#F9F9F8"/>
</g>
<path d="M42.0049 -0.000854492H46.0049V3.99915H42.0049V-0.000854492Z" fill="#185D41"/>
<path d="M40.0049 12.0009H42.0049V18.0009H40.0049V12.0009Z" fill="#F9F9F8"/>
<path d="M43.0049 6.00085H45.0049V14.0009H43.0049V6.00085Z" fill="#F9F9F8"/>
<path d="M42.0049 14.0011H44.0049V16.0011H42.0049V14.0011Z" fill="#F9F9F8"/>
<path d="M4.99937 26.0009V26.9788L20 31.9971L35.0006 26.9788V26.0009H38V27.9829L20 34.0009L2 27.9829V26.0009H4.99937Z" fill="#F9F9F8"/>
<path d="M20.0002 28.0012V28.0077V30.0009L8 26.0009H13.9961L20.0002 28.0012Z" fill="#F9F9F8"/>
<path d="M19.9998 28.0012V28.0077V30.0009L32 26.0009H26.0039L19.9998 28.0012Z" fill="#F9F9F8"/>
<path d="M24.0049 0.000854492V2.00085H36.0042V4.00085H38.0049V0.000854492H24.0049Z" fill="white"/>
<path d="M16 0.000854492V2.00085H4.00072V4.00085H2V0.000854492H16Z" fill="white"/>
<path d="M13.8812 1.99695H28V0.000854492H15.7586L12 -0.00305176V1.99695H13.8812Z" fill="white"/>
<path d="M30 5.00085V7.00135H37.9995V23.0004H30V25.0009H40V5.00085H30Z" fill="#F9F9F8"/>
<path d="M10 7.00135V5.00085H0V25.0009H10V23.0004H2.0005V7.00135H10Z" fill="#F9F9F8"/>
<path d="M12 5.00085V25.0009H28V5.00085H12ZM26 23.0009H14V7.00085H26V23.0009Z" fill="#F9F9F8"/>
<defs>
<clipPath id="clip0_301_503">
<rect width="10" height="12" fill="white" transform="translate(15 9.0011)"/>
</clipPath>
<clipPath id="clip1_301_503">
<rect width="6" height="8" fill="white" transform="translate(4 11.0009)"/>
</clipPath>
<clipPath id="clip2_301_503">
<rect width="6" height="8" fill="white" transform="translate(30 11.0009)"/>
</clipPath>
</defs>
</svg>
