<svg width="20" height="20" viewBox="0 0 20 20" fill="none" xmlns="http://www.w3.org/2000/svg">
<path d="M17.2794 8.43818C17.2794 8.3731 17.25 8.31453 17.1912 8.26247C17.1324 8.21041 17.0662 8.18438 16.9926 8.18438L3.00735 8.16486C2.93382 8.16486 2.86765 8.18764 2.80882 8.23319C2.75 8.27874 2.72059 8.34056 2.72059 8.41866V17.2234C2.72059 17.3015 2.74265 17.3633 2.78676 17.4089C2.83088 17.4544 2.88235 17.4772 2.94118 17.4772H17.0368C17.0956 17.4772 17.1507 17.4544 17.2022 17.4089C17.2537 17.3633 17.2794 17.3015 17.2794 17.2234V8.43818ZM19 8.43818V17.2234C19 17.705 18.8088 18.1215 18.4265 18.4729C18.0441 18.8243 17.5809 19 17.0368 19H2.94118C2.39706 19 1.9375 18.8243 1.5625 18.4729C1.1875 18.1215 1 17.705 1 17.2234V8.41866C1 7.92408 1.19485 7.50434 1.58456 7.15944C1.97426 6.81453 2.44853 6.64208 3.00735 6.64208L16.9926 6.6616C17.5515 6.67462 18.0257 6.85358 18.4154 7.19848C18.8051 7.54338 19 7.95662 19 8.43818ZM9.13971 7.69631H10.8603V18.5705H9.13971V7.69631ZM10.8603 7.42299H9.13971V4.59219C9.13971 3.60304 9.51471 2.75705 10.2647 2.05423C11.0147 1.35141 11.9338 1 13.0221 1C14.0956 1 15.0074 1.35141 15.7574 2.05423C16.5074 2.75705 16.8824 3.60304 16.8824 4.59219C16.8824 5.58134 16.5074 6.42733 15.7574 7.13015C15.0074 7.83297 14.0956 8.18438 13.0221 8.18438V6.6616C13.6103 6.6616 14.114 6.45987 14.5331 6.0564C14.9522 5.65293 15.1618 5.16486 15.1618 4.59219C15.1618 4.01952 14.9522 3.53145 14.5331 3.12798C14.114 2.72451 13.6103 2.52278 13.0221 2.52278C12.4338 2.52278 11.9265 2.72451 11.5 3.12798C11.0735 3.53145 10.8603 4.01952 10.8603 4.59219V7.42299ZM10.4191 7.42299H8.69853V4.59219C8.69853 4.01952 8.48897 3.53145 8.06985 3.12798C7.65074 2.72451 7.14706 2.52278 6.55882 2.52278C5.95588 2.52278 5.44485 2.72451 5.02574 3.12798C4.60662 3.53145 4.39706 4.01952 4.39706 4.59219C4.39706 5.16486 4.60662 5.65293 5.02574 6.0564C5.44485 6.45987 5.95588 6.6616 6.55882 6.6616V8.18438C5.47059 8.18438 4.55147 7.83297 3.80147 7.13015C3.05147 6.42733 2.67647 5.58134 2.67647 4.59219C2.67647 3.60304 3.05147 2.75705 3.80147 2.05423C4.55147 1.35141 5.47059 1 6.55882 1C7.63235 1 8.54412 1.35141 9.29412 2.05423C10.0441 2.75705 10.4191 3.60304 10.4191 4.59219V7.42299Z" fill="#686A6B"/>
</svg>
