<svg width="20" height="20" viewBox="0 0 20 20" fill="none" xmlns="http://www.w3.org/2000/svg">
<path d="M14.089 12.564H12.0904V11.9661C12.0904 11.5441 12.2063 11.1367 12.438 10.7439C12.6697 10.3512 12.9811 10.0025 13.3721 9.69765C13.8935 9.31079 14.2954 8.85945 14.5778 8.34363C14.8602 7.82781 15.0014 7.27682 15.0014 6.69066C15.0014 6.08105 14.8493 5.51248 14.5452 4.98494C14.2411 4.45739 13.8319 4.00898 13.3178 3.6397C12.8037 3.27042 12.2063 2.99199 11.5256 2.80442C10.8449 2.62858 10.128 2.57582 9.37495 2.64616C8.28876 2.75167 7.34015 3.12095 6.52913 3.754C5.71811 4.38705 5.2257 5.13734 5.05191 6.00485C4.92157 6.71997 5.00122 7.40577 5.29087 8.06227C5.58052 8.71877 6.04396 9.28148 6.6812 9.75041C7.07222 10.0318 7.37274 10.3776 7.58273 10.7879C7.79273 11.1982 7.89773 11.6261 7.89773 12.0716V12.564H5.89914V12.0716C5.89914 11.8371 5.84845 11.6232 5.74707 11.4298C5.6457 11.2363 5.50811 11.0751 5.33432 10.9462C4.89984 10.6296 4.51606 10.2721 4.18296 9.8735C3.86434 9.47491 3.60728 9.05288 3.41176 8.6074C3.21625 8.16192 3.08953 7.69885 3.0316 7.2182C2.97367 6.73755 2.99539 6.25104 3.09677 5.75867C3.21263 5.13734 3.45159 4.55704 3.81365 4.01777C4.17572 3.47851 4.62468 3.00079 5.16053 2.58461C5.69638 2.16844 6.30465 1.82554 6.98533 1.55591C7.66601 1.28627 8.38289 1.11629 9.13599 1.04595C10.1932 0.940439 11.1925 1.01664 12.1339 1.27455C13.0897 1.53246 13.9261 1.91932 14.643 2.43514C15.3599 2.95096 15.9283 3.57815 16.3483 4.31671C16.7828 5.05527 17 5.84659 17 6.69066C17 7.49956 16.8009 8.2645 16.4026 8.98547C16.0043 9.70645 15.4504 10.3366 14.7407 10.8758C14.5235 11.04 14.3606 11.2158 14.2519 11.4034C14.1433 11.5909 14.089 11.7785 14.089 11.9661V12.564ZM7.91945 15.9051C7.94842 16.0927 8.01359 16.2714 8.11497 16.4414C8.21634 16.6114 8.34669 16.7609 8.506 16.8898C8.70875 17.054 8.93685 17.177 9.1903 17.2591C9.44374 17.3412 9.71529 17.3822 10.0049 17.3822C10.5263 17.3822 10.9825 17.2415 11.3735 16.9602C11.7646 16.6788 11.9963 16.3271 12.0687 15.9051H7.91945ZM10.0049 19C9.4546 19 8.92961 18.915 8.42996 18.745C7.93031 18.575 7.48498 18.3376 7.09395 18.0328C6.7174 17.7163 6.42413 17.3558 6.21413 16.9514C6.00414 16.5469 5.89914 16.122 5.89914 15.6765V14.3049H14.089V15.6765C14.089 16.5909 13.6907 17.3734 12.8942 18.024C12.0977 18.6747 11.1346 19 10.0049 19Z" fill="#686A6B"/>
</svg>
