<svg width="20" height="20" viewBox="0 0 20 20" fill="none" xmlns="http://www.w3.org/2000/svg">
<path d="M17.5137 16.0939C17.5513 16.0939 17.5795 16.0851 17.5984 16.0675C17.6172 16.0499 17.6266 16.0353 17.6266 16.0236V2.353C17.6266 2.34129 17.6172 2.32664 17.5984 2.30907C17.5795 2.2915 17.5513 2.28272 17.5137 2.28272H7.74923C7.7116 2.28272 7.68338 2.2915 7.66457 2.30907C7.64575 2.32664 7.63635 2.34129 7.63635 2.353V16.0236C7.63635 16.0353 7.64575 16.0499 7.66457 16.0675C7.68338 16.0851 7.7116 16.0939 7.74923 16.0939H17.5137ZM17.5137 17.3766H7.74923C7.33532 17.3766 6.98413 17.2448 6.69565 16.9812C6.40717 16.7177 6.26293 16.3984 6.26293 16.0236V2.353C6.26293 1.97815 6.40717 1.65893 6.69565 1.39536C6.98413 1.13178 7.33532 1 7.74923 1H17.5137C17.9276 1 18.2788 1.13178 18.5673 1.39536C18.8558 1.65893 19 1.97815 19 2.353V16.0236C19 16.3984 18.8558 16.7177 18.5673 16.9812C18.2788 17.2448 17.9276 17.3766 17.5137 17.3766ZM7.61753 13.9502L6.33818 14.407L2.57538 5.35772C2.43741 5.01801 2.45309 4.68122 2.62242 4.34736C2.79174 4.0135 3.06455 3.78215 3.44083 3.65329L6.71446 2.56386L7.18481 3.77629L3.89236 4.86572C3.87982 4.87743 3.87355 4.88622 3.87355 4.89208C3.87355 4.89793 3.87355 4.90086 3.87355 4.90086L7.61753 13.9502ZM11.5685 16.129L12.02 17.3415L9.42368 18.2025C9.05994 18.3313 8.69934 18.3225 8.34187 18.1761C7.98441 18.0297 7.73669 17.7866 7.59872 17.4469L7.37295 16.9373L8.6523 16.4453L8.87807 16.9724C8.87807 16.9842 8.88748 16.9929 8.90629 16.9988C8.92511 17.0047 8.94706 17.0017 8.97214 16.99L11.5685 16.129ZM3.4032 5.79701L4.17457 6.86887L2.40606 7.95829C2.39352 7.97001 2.38411 7.98465 2.37784 8.00222C2.37157 8.0198 2.3747 8.03444 2.38724 8.04615L9.83759 17.6929C9.85013 17.7046 9.87521 17.7105 9.91284 17.7105C9.95047 17.7105 10.0132 17.6929 10.101 17.6577L13.939 16.129L14.4658 17.3063L10.6466 18.835C10.2829 18.9873 9.92852 19.0342 9.5836 18.9756C9.23867 18.917 8.94706 18.7413 8.70875 18.4485L1.27722 8.80172C1.03891 8.48544 0.954245 8.14279 1.02323 7.77379C1.09221 7.40479 1.29603 7.11487 1.63468 6.90401L3.4032 5.79701ZM12.6409 11.4902L11.1546 9.48701C11.1295 9.46358 11.1169 9.43723 11.1169 9.40794C11.1169 9.37865 11.1295 9.3523 11.1546 9.32887L12.6409 7.32572C12.6785 7.27887 12.7255 7.25544 12.782 7.25544C12.8384 7.25544 12.8855 7.27887 12.9231 7.32572L14.4094 9.32887C14.4345 9.3523 14.447 9.37865 14.447 9.40794C14.447 9.43723 14.4345 9.46358 14.4094 9.48701L12.9231 11.4902C12.8855 11.537 12.8384 11.5604 12.782 11.5604C12.7255 11.5604 12.6785 11.537 12.6409 11.4902Z" fill="#1BAE72"/>
</svg>
