<svg width="20" height="20" viewBox="0 0 20 20" fill="none" xmlns="http://www.w3.org/2000/svg">
<path d="M13.5072 18H6.49363C6.47625 17.9999 6.45909 17.9962 6.44322 17.9892C6.42735 17.9822 6.41313 17.9721 6.40144 17.9595C6.38976 17.9469 6.38086 17.932 6.37531 17.9159C6.36976 17.8997 6.36769 17.8826 6.36921 17.8656C6.40952 17.4426 6.60906 17.0495 6.92892 16.7628C7.24877 16.4762 7.66603 16.3166 8.09936 16.3152H8.92624L9.0861 14.2243H10.9155L11.0753 16.3152H11.9022C12.3356 16.3165 12.7529 16.476 13.0728 16.7626C13.3927 17.0493 13.5922 17.4426 13.6324 17.8656C13.6339 17.8826 13.632 17.8997 13.6265 17.9159C13.6211 17.9321 13.6124 17.9471 13.6009 17.9598C13.5891 17.9726 13.5748 17.9827 13.5588 17.9896C13.5428 17.9966 13.5247 18.0001 13.5072 18ZM4.66662 9.25413C3.1365 7.97703 2.13007 6.16099 1.99226 4.12721H3.41528C3.40662 3.91333 3.40031 3.69714 3.40031 3.47862C3.40031 3.37439 3.40346 3.27169 3.40583 3.16977H1.12443C1.09143 3.16977 1.05978 3.18263 1.03644 3.20551C1.01311 3.22838 1 3.25941 1 3.29177V3.64849C1 6.89451 2.94986 9.71895 5.80535 11.1412C5.48633 10.6986 5.19393 10.2382 4.92965 9.76219C4.83794 9.59487 4.75024 9.42547 4.66662 9.25413ZM16.5942 3.16977C16.5965 3.27169 16.5997 3.37439 16.5997 3.47862C16.5997 3.69714 16.5934 3.91333 16.5847 4.12721H18.0077C17.8699 6.16099 16.8635 7.97703 15.3334 9.25413C15.2497 9.42546 15.162 9.59486 15.0704 9.76219C14.806 10.2382 14.5136 10.6986 14.1946 11.1412C17.0501 9.71972 19 6.89451 19 3.64849V3.29177C19 3.25941 18.9869 3.22838 18.9636 3.20551C18.9402 3.18263 18.9086 3.16977 18.8756 3.16977H16.5942ZM15.4184 2H4.58157C4.55094 1.99998 4.52135 2.01096 4.49842 2.03088C4.47549 2.05081 4.46081 2.07828 4.45715 2.1081C4.4036 2.56288 4.37682 3.01998 4.37761 3.47785C4.37761 8.3407 6.59286 10.7945 8.82937 13.2259C8.8411 13.2387 8.85543 13.249 8.87143 13.256C8.88743 13.2631 8.90476 13.2668 8.9223 13.2669H11.0777C11.0952 13.2668 11.1126 13.2631 11.1286 13.2561C11.1446 13.249 11.1589 13.2388 11.1706 13.2259C13.4071 10.7945 15.6224 8.3407 15.6224 3.47785C15.6232 3.01998 15.5964 2.56288 15.5436 2.1081C15.54 2.07815 15.5252 2.05057 15.5021 2.03063C15.479 2.01069 15.4492 1.99979 15.4184 2Z" fill="#FFF50B"/>
</svg>
