<svg width="24" height="24" viewBox="0 0 24 24" fill="none" xmlns="http://www.w3.org/2000/svg">
<g id="base_category_ico_bonuses">
<g id="Group">
<path id="Vector" d="M20.159 12.0325V21.3665C20.159 21.5893 20.0705 21.803 19.913 21.9605C19.7555 22.118 19.5418 22.2065 19.319 22.2065H12.661V12.0325H20.159ZM3.83903 12.0325V21.3665C3.83903 21.5893 3.92753 21.803 4.08506 21.9605C4.24259 22.118 4.45625 22.2065 4.67903 22.2065H11.337V12.0325H3.83903ZM21.416 6.15954C21.416 5.93676 21.3275 5.7231 21.17 5.56557C21.0125 5.40804 20.7988 5.31954 20.576 5.31954H17.239V3.07354C17.239 2.86756 17.1892 2.66464 17.094 2.48198C16.9988 2.29932 16.861 2.1423 16.6922 2.02425C16.5234 1.90619 16.3287 1.83058 16.1244 1.80382C15.9202 1.77707 15.7125 1.79995 15.519 1.87054L14.894 2.09854C14.0528 2.40665 13.3269 2.96635 12.815 3.70154C12.5682 3.55558 12.2868 3.47857 12 3.47857C11.7133 3.47857 11.4318 3.55558 11.185 3.70154C10.6731 2.96635 9.94723 2.40665 9.10603 2.09854L8.48103 1.87054C8.28753 1.79995 8.07986 1.77707 7.87562 1.80382C7.67139 1.83058 7.47662 1.90619 7.30784 2.02425C7.13905 2.1423 7.00121 2.29932 6.90603 2.48198C6.81084 2.66464 6.7611 2.86756 6.76103 3.07354V5.32054H3.42203C3.19925 5.32054 2.98559 5.40904 2.82806 5.56657C2.67053 5.7241 2.58203 5.93776 2.58203 6.16054V10.7085H11.159V6.81354H12.839V10.7085H21.416V6.15954Z" fill="url(#paint0_linear_128_6732)"/>
</g>
</g>
<defs>
<linearGradient id="paint0_linear_128_6732" x1="20.7942" y1="1.79297" x2="1.76337" y2="3.53265" gradientUnits="userSpaceOnUse">
<stop stop-color="#1BAE72"/>
<stop offset="1" stop-color="#146444"/>
</linearGradient>
</defs>
</svg>
