<svg width="116" height="36" viewBox="0 0 116 36" fill="none" xmlns="http://www.w3.org/2000/svg">
<g id="Gamban.svg" clip-path="url(#clip0_128_23952)">
<g id="Layer 1">
<g id="Group">
<path id="Vector" d="M58.3455 17.5722C58.3282 21.2486 55.9924 23.4089 52.526 23.4089C48.5103 23.4089 45.9961 20.538 45.9961 17.3478C45.9961 14.1577 48.5448 11.2695 52.3477 11.2695C54.4764 11.2695 56.1046 12.0433 57.6522 13.5104L56.7662 14.3475C55.4602 13.0732 53.8809 12.3972 52.3822 12.3972C49.6091 12.3972 47.2072 14.5259 47.2072 17.3162C47.2072 20.1065 49.448 22.3474 52.5606 22.3474C54.7526 22.3474 56.7202 21.0414 57.0423 18.7027H53.3488V17.5751H58.3483L58.3455 17.5722Z" fill="white"/>
<path id="Vector_2" d="M61.1071 18.8621C61.1071 20.7175 62.5569 22.3457 64.4756 22.3457C66.2332 22.3457 67.893 21.0225 67.893 18.8966C67.893 16.9146 66.4087 15.413 64.49 15.413C62.5713 15.413 61.1042 17.0268 61.1042 18.865M67.8125 14.5759H68.8941V23.1368H67.8125V21.6697C66.8776 22.7973 65.7011 23.3468 64.3634 23.3468C61.8636 23.3468 59.9766 21.267 59.9766 18.8333C59.9766 16.3997 61.9125 14.3516 64.3951 14.3516C65.7816 14.3516 66.9581 14.9499 67.8125 16.1408V14.5759Z" fill="white"/>
<path id="Vector_3" d="M78.296 23.1358H77.2V18.7489C77.2 18.0873 77.1338 17.5407 77.1194 17.1524C77.0705 16.2175 76.314 15.412 75.1834 15.412C74.4269 15.412 73.6675 15.7831 73.1842 16.4131C72.5715 17.2041 72.4593 18.2196 72.4593 19.5083V23.1358H71.3633V14.5749H72.4593V16.042C73.2187 14.946 74.168 14.3477 75.3934 14.3477C76.6994 14.3477 77.6343 15.0237 78.1032 16.4102C78.8627 15.0409 79.9903 14.3477 81.2474 14.3477C83.0223 14.3477 84.1643 15.622 84.1643 18.0556V23.1358H83.0683V18.4612C83.0683 17.8313 82.9877 17.3336 82.9705 17.0114C82.9216 16.252 82.1967 15.4149 81.0345 15.4149C79.9702 15.4149 79.0352 16.0592 78.6009 17.1552C78.3276 17.8485 78.296 18.6051 78.296 19.3961V23.1358Z" fill="white"/>
<path id="Vector_4" d="M94.3902 18.8293C94.3902 16.9739 92.9231 15.3457 91.0044 15.3457C89.2468 15.3457 87.6014 16.6517 87.6014 18.7977C87.6014 20.7797 89.0685 22.2956 91.0044 22.2956C92.9404 22.2956 94.3902 20.6675 94.3902 18.8293ZM87.6819 23.1356H86.5859V11.2695H87.6819V16.0419C88.6168 14.9142 89.779 14.3475 91.1166 14.3475C93.6164 14.3475 95.5179 16.4273 95.5179 18.861C95.5179 21.2946 93.5819 23.36 91.085 23.36C89.6985 23.36 88.5536 22.7473 87.6819 21.5535V23.1327V23.1356Z" fill="white"/>
<path id="Vector_5" d="M98.2457 18.8621C98.2457 20.7175 99.6956 22.3457 101.614 22.3457C103.372 22.3457 105.032 21.0225 105.032 18.8966C105.032 16.9146 103.547 15.413 101.629 15.413C99.71 15.413 98.2429 17.0268 98.2429 18.865M104.951 14.5759H106.033V23.1368H104.951V21.6697C104.016 22.7973 102.84 23.3468 101.502 23.3468C99.0023 23.3468 97.1152 21.267 97.1152 18.8333C97.1152 16.3997 99.0512 14.3516 101.534 14.3516C102.92 14.3516 104.097 14.9499 104.951 16.1408V14.5759Z" fill="white"/>
<path id="Vector_6" d="M109.614 16.1053C110.5 14.9431 111.565 14.3477 112.822 14.3477C114.692 14.3477 115.998 15.6364 115.998 18.3289V23.1329H114.902V18.4727C114.902 16.4562 114.272 15.3458 112.612 15.3458C111.691 15.3458 110.935 15.7486 110.354 16.508C109.709 17.3451 109.612 18.1851 109.612 19.54V23.1358H108.516V14.5749H109.612V16.1053H109.614Z" fill="white"/>
<path id="Vector_7" d="M27.5638 28.0018C27.5638 28.0018 27.5495 28.0133 27.5437 28.0191C27.3366 28.2262 27.1237 28.4218 26.908 28.6116C26.8389 28.6749 26.767 28.7325 26.6951 28.7929C26.5254 28.9367 26.3557 29.0748 26.1802 29.21C26.114 29.2589 26.0507 29.3107 25.9846 29.3596C25.7544 29.5293 25.5214 29.6933 25.2856 29.8486C25.2223 29.8889 25.159 29.9263 25.0957 29.9665C24.9087 30.0845 24.7189 30.1995 24.5261 30.3089C24.4485 30.352 24.3708 30.3952 24.2931 30.4383C24.063 30.5649 23.83 30.6828 23.5941 30.795C23.5711 30.8065 23.5509 30.818 23.5279 30.8295C23.2662 30.9503 22.9986 31.0625 22.7311 31.169C22.6649 31.1949 22.5988 31.2179 22.5326 31.2438C22.3111 31.3272 22.0867 31.4049 21.8624 31.4768C21.8077 31.494 21.7531 31.5142 21.6955 31.5314C21.4165 31.6177 21.1346 31.6954 20.8498 31.7616C20.8239 31.7673 20.8009 31.7731 20.775 31.7788C20.5161 31.8392 20.2572 31.891 19.9954 31.937C19.9322 31.9485 19.8717 31.9572 19.8085 31.9687C19.5409 32.0118 19.2734 32.0492 19.0059 32.0751C18.9886 32.0751 18.9685 32.0809 18.9512 32.0809C18.6636 32.1096 18.373 32.1269 18.0854 32.1384C18.0192 32.1384 17.9559 32.1413 17.8897 32.1441C17.6654 32.1499 17.441 32.1499 17.2166 32.1441C17.1389 32.1441 17.0613 32.1441 16.9865 32.1384C16.7132 32.1269 16.4399 32.1125 16.1666 32.0837C16.0976 32.078 16.0314 32.0665 15.9624 32.0607C15.761 32.0377 15.5568 32.0118 15.3554 31.9802C15.2346 31.96 15.1167 31.9399 14.9987 31.9198C14.8492 31.8939 14.6996 31.8622 14.55 31.8306C14.2911 31.7759 14.0322 31.7127 13.7762 31.6436C13.6841 31.6177 13.5892 31.5947 13.4971 31.5688C13.4454 31.5544 13.3965 31.5343 13.3447 31.5199L17.1505 27.7141C19.7711 27.8148 22.4233 26.8684 24.4197 24.872C27.6818 21.6099 28.1449 16.5931 25.8062 12.8333L23.4042 15.2353V21.0921H19.3741V13.0117L19.3655 13.0031L25.8609 6.50764C26.4535 6.93913 27.0202 7.41953 27.5552 7.95458C33.0812 13.4835 33.0812 22.4787 27.5552 28.0076M7.39581 28.0593C1.86981 22.5305 1.86981 13.5352 7.39581 8.00636C7.40156 8.00061 7.40732 7.99486 7.41595 7.9891C7.62306 7.78199 7.83593 7.58638 8.05168 7.39652C8.12072 7.33611 8.19263 7.2757 8.26455 7.21529C8.43427 7.07146 8.60399 6.93338 8.77947 6.79818C8.84563 6.74928 8.90892 6.6975 8.97508 6.64859C9.20521 6.47887 9.43822 6.31491 9.6741 6.15957C9.73738 6.1193 9.80067 6.0819 9.86396 6.04163C10.0509 5.92368 10.2408 5.80862 10.4364 5.69931C10.5141 5.65616 10.5917 5.61301 10.6694 5.56986C10.8995 5.44616 11.1325 5.32535 11.3684 5.21316C11.3914 5.20165 11.4116 5.19014 11.4346 5.18151C11.6964 5.0607 11.9639 4.94851 12.2314 4.84207C12.2976 4.81618 12.3637 4.79317 12.4299 4.76728C12.6514 4.68386 12.8758 4.60619 13.1002 4.53427C13.1548 4.51701 13.2095 4.49688 13.267 4.47962C13.546 4.39332 13.8279 4.31565 14.1127 4.24949C14.1386 4.24373 14.1616 4.23798 14.1875 4.23223C14.4464 4.17182 14.7053 4.12004 14.9671 4.07401C15.0304 4.06251 15.0908 4.05388 15.1541 4.04237C15.4216 3.99922 15.6891 3.96182 15.9567 3.93594C15.9739 3.93594 15.994 3.93018 16.0113 3.93018C16.299 3.90142 16.5895 3.88416 16.8772 3.87265C16.9405 3.87265 17.0066 3.86977 17.0728 3.8669C17.2972 3.86114 17.5215 3.86114 17.7459 3.8669C17.8236 3.8669 17.9013 3.8669 17.976 3.87265C18.2493 3.88416 18.5226 3.89854 18.7959 3.9273C18.8649 3.93306 18.9311 3.94456 19.0001 3.95319C19.2015 3.97621 19.4057 4.0021 19.6071 4.03374C19.7279 4.051 19.8459 4.07401 19.9638 4.09415C20.1134 4.12004 20.263 4.15168 20.4125 4.18333C20.6714 4.23798 20.9303 4.30127 21.1864 4.37318C21.2784 4.39907 21.3733 4.42209 21.4654 4.44797C21.5172 4.46236 21.5661 4.48249 21.6179 4.49688L17.8121 8.30266C15.1915 8.20197 12.5392 9.14838 10.5428 11.1448C7.28074 14.4069 6.81761 19.4266 9.15631 23.1863L11.5583 20.7843V14.9275H15.5884V23.008L15.5971 23.0166L9.10165 29.512C8.50906 29.0805 7.94237 28.6001 7.40732 28.0651M17.4841 0.515625C7.8273 0.515625 0 8.34293 0 17.9998C0 27.6566 7.8273 35.4839 17.4841 35.4839C27.141 35.4839 34.9683 27.6566 34.9683 17.9998C34.9683 8.34293 27.141 0.515625 17.4841 0.515625Z" fill="white"/>
</g>
</g>
</g>
<defs>
<clipPath id="clip0_128_23952">
<rect width="116" height="34.9683" fill="white" transform="translate(0 0.515625)"/>
</clipPath>
</defs>
</svg>
