<svg width="122" height="36" viewBox="0 0 122 36" fill="none" xmlns="http://www.w3.org/2000/svg">
<g clip-path="url(#clip0_128_23934)">
<path d="M46.2699 13.8374C46.3505 14.1399 46.2497 14.3213 46.0078 14.402L43.689 15.0875C43.4067 15.1682 43.2656 15.0875 43.1647 14.8052C42.8018 13.6156 42.0356 12.9905 40.604 12.9905C38.4264 12.9905 37.6803 14.281 37.6803 16.015V20.0074C37.6803 21.7414 38.4062 23.0319 40.604 23.0319C42.3985 23.0319 43.3462 22.2052 43.3462 20.3703V19.8461H40.9871C40.7855 19.8461 40.6645 19.7453 40.6645 19.5033V17.2853C40.6443 17.124 40.7653 16.9627 40.9468 16.9426H46.2296C46.4514 16.9426 46.5723 17.0434 46.5723 17.2652V20.572C46.5723 23.7174 44.2536 26.0967 40.6443 26.0967C36.3697 26.0967 34.3735 23.5561 34.3735 20.088V15.8739C34.3735 12.4058 36.3697 9.86523 40.6443 9.86523C44.0923 9.8854 45.6448 11.8614 46.2699 13.8374ZM58.0251 17.7693V25.512C58.0453 25.6733 57.9041 25.8144 57.7428 25.8346H55.3434C55.1821 25.8547 55.0208 25.7338 55.0006 25.5523V24.2417C54.315 25.391 53.0851 26.0967 51.7341 26.0765C49.496 26.0765 48.0644 24.6449 48.0644 22.427C48.0644 20.209 49.4154 18.9992 52.7221 18.7573C53.4279 18.6968 54.1537 18.6968 54.8796 18.7371V17.8701C54.8796 16.7208 54.2747 16.257 53.2464 16.257C52.2181 16.257 51.8955 16.6804 51.6132 17.3458C51.5123 17.6079 51.4115 17.6483 51.1897 17.5878L48.8306 16.9829C48.5887 16.9224 48.5685 16.7812 48.6088 16.6199C48.9314 14.9262 50.5445 13.6761 53.3674 13.6761C56.3515 13.6963 58.0251 15.1279 58.0251 17.7693ZM54.8796 21.8422V20.7131C54.2546 20.6929 53.6093 20.7131 52.9843 20.7736C51.7745 20.9147 51.1494 21.2978 51.1494 22.2052C51.1494 23.0319 51.714 23.4956 52.6213 23.4956C53.6698 23.4956 54.4965 22.9311 54.8796 21.8422ZM66.534 13.6963C68.0261 13.6963 69.0141 14.5834 69.4779 15.8537C70.365 14.5633 71.4337 13.6963 72.9258 13.6963C75.0026 13.6963 76.1922 15.3497 76.1922 17.8096V25.512C76.1922 25.7136 76.0108 25.8346 75.8091 25.8346H73.3492C73.1274 25.8346 72.9661 25.7136 72.9661 25.512V18.3742C72.9661 17.3055 72.5023 16.6603 71.6555 16.6603C70.8086 16.6603 70.1231 17.3861 69.8206 18.4951V25.512C69.8408 25.6733 69.6996 25.8144 69.5383 25.8346H66.8566C66.655 25.8346 66.5743 25.7136 66.5743 25.512V18.3742C66.5743 17.3055 66.0904 16.6603 65.2637 16.6603C64.3564 16.6603 63.7111 17.4265 63.4289 18.5355V25.5321C63.449 25.6934 63.328 25.8346 63.1667 25.8547H60.5052C60.3439 25.8749 60.2027 25.7539 60.1826 25.5926V14.281C60.1826 14.1197 60.3237 13.9785 60.485 13.9785H63.0054C63.1667 13.9584 63.3079 14.0794 63.328 14.2608V15.6319C64.0136 14.6238 65.0419 13.6963 66.534 13.6963ZM89.6815 13.9584C89.742 14.2407 89.6613 14.4423 89.3992 14.523L87.1208 15.1883C86.8385 15.269 86.6973 15.1682 86.5965 14.9061C86.2739 13.8374 85.7093 12.9704 84.1366 12.9704C82.1807 12.9704 81.5557 14.2608 81.5557 15.9949V19.9872C81.5557 21.7213 82.2614 23.0117 84.1366 23.0117C85.8101 23.0117 86.4554 22.064 86.7175 20.8946C86.778 20.6324 86.9594 20.5115 87.2417 20.6123L89.5202 21.3382C89.7823 21.4188 89.863 21.6204 89.8025 21.9027C89.2581 24.2215 87.5845 26.1169 84.1164 26.1169C80.2047 26.1169 78.2489 23.5763 78.2489 20.1082V15.8941C78.2489 12.426 80.2652 9.8854 84.1164 9.8854C87.5039 9.8854 89.0968 11.6799 89.6815 13.9584ZM101.114 17.7693V25.512C101.134 25.6733 100.993 25.8144 100.832 25.8346H98.4324C98.2711 25.8547 98.1098 25.7338 98.0896 25.5523V24.2417C97.404 25.391 96.1741 26.0967 94.8231 26.0765C92.585 26.0765 91.1534 24.6449 91.1534 22.427C91.1534 20.209 92.5044 18.9992 95.8111 18.7573C96.5169 18.6968 97.2427 18.6968 97.9686 18.7371V17.8701C97.9686 16.7208 97.3637 16.257 96.3354 16.257C95.307 16.257 94.9844 16.6804 94.7022 17.3458C94.6013 17.6079 94.5005 17.6483 94.2787 17.5878L91.9196 16.9829C91.6777 16.9224 91.6575 16.7812 91.6978 16.6199C92.0204 14.9262 93.6335 13.6761 96.4564 13.6761C99.4405 13.6963 101.114 15.1279 101.114 17.7693ZM97.9484 21.8422V20.7131C97.3234 20.6929 96.6782 20.7131 96.0531 20.7736C94.8433 20.9147 94.2182 21.2978 94.2182 22.2052C94.2182 23.0319 94.7828 23.4956 95.6902 23.4956C96.7588 23.4956 97.5653 22.9311 97.9484 21.8422ZM110.288 14.1802V16.4788C110.288 16.7611 110.188 16.8619 109.905 16.8619H109.563C107.849 16.8619 106.84 17.6281 106.498 18.9186V25.5321C106.518 25.6934 106.397 25.8346 106.236 25.8547H103.514C103.352 25.8547 103.231 25.7136 103.231 25.5523V14.2608C103.231 14.0995 103.352 13.9584 103.493 13.9584H105.973C106.236 13.9584 106.296 14.1197 106.296 14.3012V15.8941C106.861 14.8456 107.909 13.8172 109.744 13.8172C110.208 13.8172 110.288 13.8777 110.288 14.1802ZM114.503 20.8946V21.3382C114.503 22.5883 115.148 23.4553 116.66 23.4553C118.172 23.4553 118.555 22.8907 118.938 22.185C119.14 21.8624 119.221 21.8221 119.564 21.9632L121.257 22.8302C121.6 23.0117 121.62 23.173 121.479 23.4956C120.753 25.149 118.918 26.0967 116.66 26.0967C113.232 26.0967 111.418 24.0602 111.418 21.2777V18.5355C111.418 15.8336 113.111 13.7164 116.62 13.7164C120.128 13.7164 121.6 15.8336 121.6 18.475V20.3703C121.6 20.6929 121.499 20.9147 121.035 20.9147L114.503 20.8946ZM114.503 18.3742V18.7774H118.636V18.3742C118.636 17.2248 117.991 16.3175 116.579 16.3175C115.168 16.3175 114.503 17.2248 114.503 18.3742Z" fill="white"/>
<path d="M15.4403 0.548828H1.04369C0.801731 0.548828 0.600098 0.750461 0.600098 0.992421V21.9219C0.600098 29.3824 6.64909 35.4515 14.1297 35.4515H15.4403C22.9007 35.4515 28.9497 29.4025 28.9497 21.9219V14.0784C28.9699 6.59782 22.9209 0.548828 15.4403 0.548828ZM24.6348 22.1437C24.6348 27.2249 20.8844 31.0761 15.0774 31.0761C8.1815 31.0761 4.95537 26.9829 4.95537 21.3775V14.5825C4.95537 8.97709 8.1815 4.88394 15.0774 4.88394C20.6626 4.88394 23.183 8.06974 24.1912 11.2555C24.3323 11.7395 24.1508 12.0218 23.7677 12.1629L20.0174 13.2719C19.5738 13.413 19.3318 13.2719 19.1907 12.8283C18.6059 10.9128 17.3558 9.88444 15.0774 9.88444C11.5488 9.88444 10.3591 11.9613 10.3591 14.764V21.2162C10.3591 24.0189 11.5286 26.0957 15.0774 26.0957C17.9809 26.0957 19.5133 24.7448 19.5133 21.801V20.9743H15.6419C15.3395 20.9743 15.1177 20.7928 15.1177 20.4298V16.8609C15.1177 16.5182 15.3193 16.2964 15.6419 16.2964H24.0904C24.4331 16.2964 24.6348 16.4778 24.6348 16.8206V22.1437Z" fill="white"/>
</g>
<defs>
<clipPath id="clip0_128_23934">
<rect width="121" height="34.9027" fill="white" transform="translate(0.600098 0.548828)"/>
</clipPath>
</defs>
</svg>
