<svg width="24" height="24" viewBox="0 0 24 24" fill="none" xmlns="http://www.w3.org/2000/svg">
<g id="base_category_ico_casinos">
<g id="Group">
<path id="Vector" d="M19.6827 4.27961C18.6764 3.26162 17.478 2.45343 16.1571 1.90186C14.8361 1.3503 13.4189 1.06633 11.9874 1.06641C10.556 1.06648 9.13874 1.35059 7.81786 1.90229C6.49699 2.45398 5.29871 3.2623 4.29245 4.28039C3.28619 5.29849 2.49196 6.50614 1.95575 7.83338C1.41954 9.16062 1.15203 10.5811 1.1687 12.0124C1.18538 13.4438 1.48591 14.8576 2.05288 16.172C2.61986 17.4864 3.44201 18.6752 4.47171 19.6696C6.49204 21.6779 9.22705 22.8019 12.0757 22.7946H12.1407C14.2807 22.7821 16.369 22.1352 18.1414 20.9358C19.9138 19.7364 21.2907 18.0384 22.098 16.0564C22.9053 14.0745 23.1067 11.8976 22.6768 9.80117C22.2469 7.70473 21.2049 5.78386 19.6827 4.27961ZM16.4087 3.58561C18.1473 4.48776 19.5644 5.90554 20.4657 7.64461L18.5347 8.75861L18.3137 8.37861C17.9917 7.81986 17.597 7.30637 17.1397 6.85161C16.6996 6.41956 16.2071 6.04431 15.6737 5.73461L15.2947 5.51261L16.4087 3.58561ZM12.0207 2.53861C12.1848 2.53775 12.3488 2.54108 12.5127 2.54861V4.76461L12.0737 4.76661C12.0537 4.76661 12.0337 4.76661 12.0137 4.76461C10.765 4.7718 9.53948 5.10256 8.45671 5.72461L8.07571 5.94461L6.97371 4.03461C8.4786 3.06407 10.23 2.54493 12.0207 2.53861ZM2.63771 12.0316C2.62307 10.2091 3.14017 8.42179 4.12571 6.88861L6.02471 7.98461L5.80071 8.36761C5.16061 9.46573 4.82217 10.7136 4.81971 11.9846V12.4246H2.65071C2.644 12.2937 2.639 12.1627 2.63771 12.0316ZM7.74371 20.3566C6.01025 19.4556 4.59672 18.0421 3.69571 16.3086L5.56571 15.2286L5.78571 15.6106C6.41688 16.7179 7.33471 17.6347 8.44271 18.2646L8.82471 18.4846L7.74371 20.3566ZM12.1317 21.4146C11.9626 21.4147 11.7936 21.4107 11.6247 21.4026V19.2366L12.0957 19.2346C13.357 19.2263 14.594 18.8877 15.6837 18.2526L16.0667 18.0296L17.1617 19.9276C15.6607 20.8918 13.9157 21.4077 12.1317 21.4146ZM12.0857 17.6016C11.35 17.6059 10.6207 17.4653 9.93941 17.1878C9.25808 16.9103 8.63809 16.5013 8.11484 15.9842C7.59158 15.467 7.1753 14.8519 6.88977 14.1739C6.60424 13.4959 6.45505 12.7683 6.45071 12.0326C6.44638 11.2969 6.58699 10.5676 6.86451 9.88631C7.14203 9.20498 7.55104 8.58499 8.06817 8.06174C8.5853 7.53848 9.20042 7.1222 9.87843 6.83667C10.5564 6.55114 11.284 6.40195 12.0197 6.39761C13.5055 6.38886 14.9338 6.97068 15.9906 8.01507C17.0474 9.05946 17.646 10.4809 17.6547 11.9666C17.6635 13.4524 17.0816 14.8807 16.0373 15.9375C14.9929 16.9943 13.5715 17.5929 12.0857 17.6016ZM18.1057 15.9776L18.3257 15.5966C18.9577 14.4979 19.2892 13.2521 19.2867 11.9846L19.2857 11.5426H21.5027C21.598 13.499 21.078 15.436 20.0157 17.0816L18.1057 15.9776ZM14.9797 10.4816C14.999 10.4797 15.0185 10.4824 15.0364 10.4897C15.0544 10.4969 15.0704 10.5084 15.083 10.5231C15.0955 10.5379 15.1044 10.5554 15.1087 10.5743C15.113 10.5932 15.1127 10.6129 15.1077 10.6316L14.2377 14.0186C14.229 14.0528 14.2091 14.0831 14.1812 14.1046C14.1533 14.1262 14.119 14.1378 14.0837 14.1376H9.91771C9.88262 14.1376 9.84853 14.1259 9.82082 14.1043C9.79312 14.0828 9.77338 14.0526 9.76471 14.0186L8.89371 10.6316C8.88877 10.6129 8.88844 10.5932 8.89275 10.5743C8.89706 10.5554 8.90588 10.5379 8.91846 10.5231C8.93104 10.5084 8.94701 10.4969 8.96499 10.4897C8.98297 10.4824 9.00243 10.4797 9.02171 10.4816C9.31981 10.512 9.60304 10.6269 9.8381 10.8127C10.0732 10.9985 10.2503 11.2476 10.3487 11.5306L10.3507 11.5356C10.3718 11.5957 10.411 11.6478 10.463 11.6847C10.5149 11.7216 10.577 11.7415 10.6407 11.7416H10.6707C10.7492 11.7416 10.8255 11.7151 10.8871 11.6665C10.9488 11.6179 10.9923 11.5499 11.0107 11.4736C11.1472 10.9212 11.3539 10.3885 11.6257 9.88861L11.8777 9.42561C11.8914 9.40065 11.9117 9.37985 11.9362 9.36544C11.9608 9.35102 11.9888 9.34352 12.0173 9.34373C12.0458 9.34393 12.0737 9.35184 12.0981 9.3666C12.1224 9.38137 12.1423 9.40245 12.1557 9.42761L12.4027 9.89361C12.6659 10.3925 12.8657 10.9222 12.9977 11.4706C13.0157 11.5474 13.059 11.6159 13.1207 11.6651C13.1824 11.7143 13.2588 11.7412 13.3377 11.7416H13.3567C13.4217 11.7414 13.485 11.7211 13.538 11.6835C13.591 11.6459 13.6311 11.5929 13.6527 11.5316C13.7509 11.2482 13.9281 10.9988 14.1634 10.8127C14.3987 10.6267 14.6813 10.5118 14.9797 10.4816Z" fill="url(#paint0_linear_128_6718)"/>
</g>
</g>
<defs>
<linearGradient id="paint0_linear_128_6718" x1="22.1799" y1="1.06641" x2="0.255232" y2="3.23884" gradientUnits="userSpaceOnUse">
<stop stop-color="#1BAE72"/>
<stop offset="1" stop-color="#146444"/>
</linearGradient>
</defs>
</svg>
