<svg width="24" height="24" viewBox="0 0 24 24" fill="none" xmlns="http://www.w3.org/2000/svg">
<g id="base_ui_ico_rating_star">
<g id="Group">
<path id="Vector" d="M8.84683 8.18241L11.1498 3.53441C11.2293 3.3738 11.3521 3.23862 11.5043 3.14418C11.6566 3.04974 11.8323 2.99979 12.0115 3C12.1906 3.00021 12.3662 3.05056 12.5182 3.14536C12.6703 3.24015 12.7928 3.37561 12.8718 3.53641L15.1598 8.19241L20.2928 8.94641C20.47 8.97241 20.6364 9.04746 20.7732 9.16309C20.91 9.27871 21.0117 9.4303 21.0669 9.6007C21.122 9.77111 21.1284 9.95355 21.0852 10.1274C21.0421 10.3012 20.9512 10.4595 20.8228 10.5844L17.1008 14.1994L17.9698 19.3134C17.9998 19.49 17.9798 19.6714 17.9121 19.8371C17.8444 20.0029 17.7316 20.1464 17.5866 20.2515C17.4416 20.3566 17.2701 20.419 17.0915 20.4317C16.9129 20.4444 16.7343 20.4069 16.5758 20.3234L11.9878 17.9024L7.39183 20.3094C7.2332 20.3921 7.05461 20.4289 6.87621 20.4155C6.69781 20.4022 6.52669 20.3392 6.38216 20.2338C6.23762 20.1283 6.12543 19.9846 6.05823 19.8188C5.99103 19.653 5.97149 19.4717 6.00183 19.2954L6.88583 14.1834L3.17583 10.5574C3.04764 10.4322 2.95707 10.2735 2.91437 10.0995C2.87166 9.92541 2.87854 9.74287 2.93421 9.57252C2.98989 9.40217 3.09214 9.2508 3.22939 9.13555C3.36664 9.0203 3.53342 8.94578 3.71083 8.92041L8.84683 8.18241Z" fill="url(#paint0_linear_128_6739)"/>
</g>
</g>
<defs>
<linearGradient id="paint0_linear_128_6739" x1="20.5117" y1="3" x2="2.1377" y2="4.90328" gradientUnits="userSpaceOnUse">
<stop stop-color="#1BAE72"/>
<stop offset="1" stop-color="#146444"/>
</linearGradient>
</defs>
</svg>
