<svg width="20" height="20" viewBox="0 0 20 20" fill="none" xmlns="http://www.w3.org/2000/svg">
<path d="M14 7.12C13.3804 7.12068 12.7763 7.30566 12.2707 7.64949C11.7652 7.99332 11.383 8.47911 11.1769 9.04H2V10.96H11.1769C11.3838 11.5204 11.7662 12.0057 12.2716 12.3494C12.7769 12.6931 13.3806 12.8784 14 12.88C14.6195 12.8789 15.2234 12.6938 15.7289 12.35C16.2344 12.0063 16.6166 11.5207 16.8231 10.96H18V9.04H16.8231C16.6161 8.47966 16.2337 7.99443 15.7283 7.65074C15.223 7.30704 14.6193 7.12167 14 7.12ZM14 10.96C13.735 10.9593 13.4811 10.858 13.2937 10.6781C13.1063 10.4982 13.0007 10.2544 13 10C13 9.47179 13.4498 9.04 14 9.04C14.5502 9.04 15 9.47179 15 10C15 10.5282 14.5502 10.96 14 10.96ZM8.82311 3.92C8.61617 3.35959 8.23383 2.8743 7.72845 2.53058C7.22306 2.18687 6.61935 2.00155 6 2C5.38052 2.00105 4.77658 2.18618 4.27109 2.52996C3.76561 2.87374 3.38338 3.35931 3.17689 3.92H2V5.84H3.17689C3.38383 6.40041 3.76617 6.8857 4.27155 7.22942C4.77694 7.57313 5.38065 7.75845 6 7.76C6.61948 7.75895 7.22342 7.57382 7.72891 7.23004C8.23439 6.88626 8.61662 6.40069 8.82311 5.84H18V3.92H8.82311ZM6 5.84C5.735 5.83932 5.48105 5.73796 5.29367 5.55808C5.10629 5.37819 5.0007 5.1344 5 4.88C5 4.35179 5.44978 3.92 6 3.92C6.55022 3.92 7 4.35179 7 4.88C7 5.40821 6.55022 5.84 6 5.84ZM6 12.24C5.38043 12.2407 4.77631 12.4257 4.27075 12.7695C3.76519 13.1133 3.38304 13.5991 3.17689 14.16H2V16.08H3.17689C3.38383 16.6404 3.76617 17.1257 4.27155 17.4694C4.77694 17.8131 5.38065 17.9985 6 18C6.61948 17.9989 7.22342 17.8138 7.72891 17.47C8.23439 17.1263 8.61662 16.6407 8.82311 16.08H18V14.16H8.82311C8.61617 13.5996 8.23383 13.1143 7.72845 12.7706C7.22306 12.4269 6.61935 12.2416 6 12.24ZM6 16.08C5.735 16.0793 5.48105 15.978 5.29367 15.7981C5.10629 15.6182 5.0007 15.3744 5 15.12C5 14.5918 5.44978 14.16 6 14.16C6.55022 14.16 7 14.5918 7 15.12C7 15.6482 6.55022 16.08 6 16.08Z" fill="#1D2730"/>
</svg>
