<svg width="14" height="15" viewBox="0 0 14 15" fill="none" xmlns="http://www.w3.org/2000/svg">
<path d="M7.08157 2.83142C8.00493 2.83142 8.90755 3.10523 9.67529 3.61822C10.443 4.13121 11.0414 4.86034 11.3948 5.71341C11.7481 6.56648 11.8406 7.50518 11.6604 8.41079C11.4803 9.31641 11.0357 10.1483 10.3828 10.8012C9.72984 11.4541 8.89798 11.8987 7.99237 12.0789C7.08675 12.259 6.14806 12.1666 5.29499 11.8132C4.44191 11.4598 3.71278 10.8615 3.19979 10.0937C2.6868 9.32598 2.413 8.42336 2.413 7.5C2.41432 6.26217 2.90659 5.07541 3.78182 4.20008C4.65704 3.32475 5.84374 2.83234 7.08157 2.83087V2.83142ZM7.08157 1.50055C6.28685 1.48975 5.4979 1.63695 4.76054 1.9336C4.02318 2.23025 3.35211 2.67044 2.7863 3.22862C2.22049 3.78679 1.77121 4.45181 1.46456 5.18507C1.15791 5.91833 1 6.7052 1 7.5C1 8.29479 1.15791 9.08167 1.46456 9.81493C1.77121 10.5482 2.22049 11.2132 2.7863 11.7714C3.35211 12.3296 4.02318 12.7697 4.76054 13.0664C5.4979 13.3631 6.28685 13.5103 7.08157 13.4994C8.6586 13.478 10.1638 12.8365 11.2714 11.7137C12.379 10.5909 13 9.07717 13 7.5C13 5.92283 12.379 4.40908 11.2714 3.2863C10.1638 2.16352 8.6586 1.522 7.08157 1.50055Z" fill="#4A5B68"/>
<path d="M8.54194 10.4732L6.5 8.33851V4.59079C6.5 4.56671 6.50915 4.54362 6.52544 4.52659C6.54172 4.50957 6.56381 4.5 6.58684 4.5H7.73231C7.75534 4.5 7.77743 4.50957 7.79372 4.52659C7.81 4.54362 7.81915 4.56671 7.81915 4.59079V7.76733L9.47469 9.49811C9.4909 9.51512 9.5 9.53816 9.5 9.56218C9.5 9.58619 9.4909 9.60923 9.47469 9.62625L8.66561 10.4732C8.65754 10.4817 8.64794 10.4885 8.63738 10.493C8.62682 10.4976 8.61549 10.5 8.60405 10.5C8.59261 10.5 8.58128 10.4976 8.57071 10.493C8.56015 10.4885 8.55001 10.4817 8.54194 10.4732Z" fill="#4A5B68"/>
</svg>
