<svg width="28" height="28" viewBox="0 0 28 28" fill="none" xmlns="http://www.w3.org/2000/svg">
<g id="base_ui_ico_reply_left">
<g id="Group">
<path id="Vector" d="M27.3391 19.2263L21.4611 21.5567V8.48093C21.4601 7.7709 21.1741 7.09023 20.6658 6.58816C20.1575 6.0861 19.4684 5.8036 18.7496 5.80262H8.03913L19.9631 1.07503C20.0915 1.02406 20.2288 0.998583 20.3671 1.00006C20.5055 1.00154 20.6422 1.02994 20.7695 1.08365C20.8967 1.13735 21.012 1.2153 21.1087 1.31305C21.2055 1.41079 21.2817 1.52641 21.3332 1.65329L27.9245 17.8742C28.0283 18.1302 28.025 18.4164 27.9152 18.67C27.8054 18.9236 27.5982 19.1237 27.3391 19.2263ZM19.8026 8.48093V25.9599C19.8026 26.2357 19.6917 26.5003 19.4942 26.6954C19.2967 26.8904 19.0289 27 18.7496 27H1.053C0.773725 27 0.505891 26.8904 0.308416 26.6954C0.11094 26.5003 0 26.2357 0 25.9599V8.48093C0 8.20507 0.11094 7.94051 0.308416 7.74545C0.505891 7.55039 0.773725 7.44081 1.053 7.44081H18.7484C19.0276 7.44081 19.2955 7.55039 19.4929 7.74545C19.6904 7.94051 19.8026 8.20507 19.8026 8.48093ZM6.30419 22.0805C6.30419 21.909 6.27 21.7392 6.20357 21.5808C6.13714 21.4224 6.03977 21.2784 5.91702 21.1572C5.79427 21.036 5.64855 20.9398 5.48817 20.8742C5.32779 20.8085 5.1559 20.7748 4.9823 20.7748C4.80871 20.7748 4.63682 20.8085 4.47644 20.8742C4.31606 20.9398 4.17034 21.036 4.04759 21.1572C3.92484 21.2784 3.82747 21.4224 3.76104 21.5808C3.69461 21.7392 3.66042 21.909 3.66042 22.0805C3.66042 22.4268 3.79969 22.7589 4.04759 23.0038C4.29549 23.2486 4.63172 23.3862 4.9823 23.3862C5.33289 23.3862 5.66912 23.2486 5.91702 23.0038C6.16492 22.7589 6.30419 22.4268 6.30419 22.0805ZM6.30419 12.3616C6.30419 12.0154 6.16499 11.6835 5.9172 11.4387C5.66942 11.194 5.33335 11.0565 4.98293 11.0565C4.63251 11.0565 4.29644 11.194 4.04866 11.4387C3.80087 11.6835 3.66167 12.0154 3.66167 12.3616C3.66167 12.7077 3.80087 13.0397 4.04866 13.2844C4.29644 13.5292 4.63251 13.6667 4.98293 13.6667C5.33335 13.6667 5.66942 13.5292 5.9172 13.2844C6.16499 13.0397 6.30419 12.7077 6.30419 12.3616ZM11.2232 17.4755C11.2286 17.3008 11.1985 17.1268 11.1346 16.9638C11.0707 16.8009 10.9743 16.6522 10.8511 16.5268C10.7279 16.4013 10.5805 16.3015 10.4176 16.2334C10.2546 16.1653 10.0795 16.1302 9.90256 16.1302C9.72562 16.1302 9.55049 16.1653 9.38755 16.2334C9.22461 16.3015 9.07718 16.4013 8.95401 16.5268C8.83084 16.6522 8.73443 16.8009 8.67052 16.9638C8.6066 17.1268 8.57647 17.3008 8.58192 17.4755C8.5925 17.8145 8.73627 18.1361 8.98279 18.3722C9.2293 18.6083 9.55918 18.7404 9.90256 18.7404C10.2459 18.7404 10.5758 18.6083 10.8223 18.3722C11.0688 18.1361 11.2126 17.8145 11.2232 17.4755ZM16.1434 22.0805C16.1434 21.9089 16.1092 21.7391 16.0428 21.5806C15.9763 21.4221 15.8789 21.2781 15.7561 21.1568C15.6333 21.0355 15.4875 20.9392 15.327 20.8736C15.1666 20.8079 14.9946 20.7741 14.8209 20.7741C14.6473 20.7741 14.4753 20.8079 14.3148 20.8736C14.1544 20.9392 14.0086 21.0355 13.8858 21.1568C13.763 21.2781 13.6655 21.4221 13.5991 21.5806C13.5326 21.7391 13.4984 21.9089 13.4984 22.0805C13.4984 22.4269 13.6378 22.7592 13.8858 23.0042C14.1338 23.2492 14.4702 23.3868 14.8209 23.3868C15.1717 23.3868 15.5081 23.2492 15.7561 23.0042C16.0041 22.7592 16.1434 22.4269 16.1434 22.0805ZM16.1434 12.3616C16.1434 12.0154 16.0042 11.6835 15.7565 11.4387C15.5087 11.194 15.1726 11.0565 14.8222 11.0565C14.4718 11.0565 14.1357 11.194 13.8879 11.4387C13.6401 11.6835 13.5009 12.0154 13.5009 12.3616C13.5115 12.7006 13.6553 13.0222 13.9018 13.2583C14.1483 13.4944 14.4782 13.6265 14.8216 13.6265C15.1649 13.6265 15.4948 13.4944 15.7413 13.2583C15.9878 13.0222 16.1316 12.7006 16.1422 12.3616H16.1434Z" fill="#1BAE72"/>
</g>
</g>
</svg>
