<svg width="28" height="28" viewBox="0 0 28 28" fill="none" xmlns="http://www.w3.org/2000/svg">
<g id="base_ui_ico_reply_left">
<g id="Group">
<path id="Vector" d="M17.0978 19.9254V23.8516H11.7316V19.9254C13.477 20.4798 15.3525 20.4798 17.0978 19.9254ZM18.2271 24.7801H10.6006C10.3047 24.7811 10.0212 24.8985 9.81199 25.1067C9.6028 25.3149 9.48495 25.5971 9.48419 25.8915V27H19.3417V25.8915C19.3408 25.5974 19.2232 25.3156 19.0144 25.1075C18.8056 24.8993 18.5226 24.7817 18.2271 24.7801ZM22.3463 2.76603V11.5207C22.3463 15.8618 18.7765 19.4136 14.4135 19.4136C10.0511 19.4136 6.48084 15.8624 6.48084 11.5207V2.76603C6.48284 2.29776 6.67088 1.84928 7.00395 1.51843C7.33701 1.18758 7.78806 1.00122 8.2587 1H20.569C21.0395 1.00137 21.4904 1.18781 21.8234 1.51864C22.1563 1.84947 22.3443 2.29786 22.3463 2.76603ZM18.5193 6.99857L15.9464 7.00321C15.8637 7.00419 15.7828 6.97857 15.7159 6.93015C15.6489 6.88174 15.5995 6.81313 15.5749 6.73451L14.7845 4.29701C14.7588 4.21935 14.7092 4.15174 14.6426 4.10381C14.5761 4.05588 14.496 4.03007 14.4138 4.03007C14.3317 4.03007 14.2516 4.05588 14.1851 4.10381C14.1185 4.15174 14.0688 4.21935 14.0432 4.29701L13.2528 6.73451C13.2282 6.81313 13.1787 6.88174 13.1118 6.93015C13.0449 6.97857 12.964 7.00419 12.8813 7.00321L10.3084 6.99857C10.226 6.99843 10.1457 7.02428 10.079 7.0724C10.0123 7.12052 9.96262 7.18844 9.93715 7.2664C9.91168 7.34436 9.9117 7.42835 9.93721 7.5063C9.96272 7.58424 10.0124 7.65214 10.0791 7.70022L12.1632 9.20103C12.2309 9.24841 12.2813 9.31629 12.3069 9.39454C12.3326 9.47278 12.3321 9.55718 12.3055 9.63513L11.5059 12.0686C11.4804 12.1464 11.4804 12.2303 11.5058 12.3082C11.5312 12.3861 11.5808 12.454 11.6473 12.5021C11.7139 12.5503 11.7941 12.5762 11.8764 12.5762C11.9587 12.5762 12.0389 12.5502 12.1055 12.5021L14.1843 10.9932C14.2507 10.944 14.3311 10.9175 14.4138 10.9175C14.4965 10.9175 14.577 10.944 14.6434 10.9932L16.7216 12.5021C16.7882 12.5513 16.8688 12.5781 16.9517 12.5786C17.0346 12.5791 17.1155 12.5534 17.1827 12.5051C17.2499 12.4568 17.2999 12.3884 17.3255 12.3099C17.351 12.2314 17.3507 12.1469 17.3247 12.0686L16.5251 9.63513C16.4985 9.55724 16.498 9.47291 16.5236 9.39469C16.5491 9.31648 16.5993 9.24855 16.6668 9.20103L18.7509 7.70022C18.8178 7.65202 18.8675 7.58392 18.893 7.50574C18.9185 7.42757 18.9183 7.34337 18.8925 7.26529C18.8668 7.18721 18.8167 7.11931 18.7496 7.07136C18.6826 7.02342 18.6019 6.99793 18.5193 6.99857ZM27.9989 2.97321C27.9989 2.92704 27.9805 2.88275 27.9476 2.8501C27.9148 2.81745 27.8703 2.79911 27.8239 2.79911H23.2801V11.5207C23.2802 11.9691 23.246 12.4169 23.178 12.8602C25.7865 11.5486 28.0572 8.57888 27.9989 2.97321ZM5.54816 2.79911H0.17608C0.129671 2.79911 0.0851625 2.81745 0.0523462 2.8501C0.0195299 2.88275 0.0010939 2.92704 0.0010939 2.97321C-0.063651 9.21496 2.75596 12.1893 5.71731 13.2455C5.60326 12.6786 5.54582 12.1018 5.54583 11.5236L5.54816 2.79911Z" fill="#1BAE72"/>
</g>
</g>
</svg>
