<svg width="28" height="28" viewBox="0 0 28 28" fill="none" xmlns="http://www.w3.org/2000/svg">
<g id="base_ui_ico_reply_left">
<g id="Group">
<path id="Vector" d="M23.4916 19.4669V17.7515L27.7282 15.6767C27.7569 15.6629 27.7887 15.6565 27.8206 15.6581C27.8525 15.6596 27.8835 15.669 27.9107 15.6855C27.9379 15.702 27.9603 15.7249 27.976 15.7521C27.9916 15.7794 27.9998 15.81 28 15.8412V17.0873C28 17.1391 27.9853 17.1898 27.9574 17.2338C27.9295 17.2779 27.8896 17.3134 27.8421 17.3365L23.4916 19.4669ZM10.2442 24.2378C10.1844 24.2673 10.1183 24.2826 10.0513 24.2826C9.98429 24.2826 9.91823 24.2673 9.8584 24.2378L0.273021 19.4669C0.244509 19.4527 0.212706 19.4458 0.180684 19.447C0.148662 19.4482 0.117503 19.4575 0.0902158 19.4739C0.0626835 19.4902 0.0399203 19.5132 0.0241192 19.5406C0.00831813 19.568 1.18082e-05 19.5989 4.83779e-07 19.6304V20.8822C-3.893e-05 20.9335 0.0144665 20.9839 0.0419114 21.0277C0.0693563 21.0714 0.10867 21.107 0.155503 21.1303L9.85365 25.9545C9.91336 25.9842 9.97939 25.9998 10.0464 26C10.1134 26.0002 10.1795 25.985 10.2394 25.9556L15.5075 23.3755V21.66L10.2442 24.2367V24.2378ZM27.8955 13.8777C27.9268 13.8626 27.9531 13.8394 27.9715 13.8105C27.99 13.7816 27.9998 13.7483 28 13.7143V12.4091C28.0003 12.3776 27.9922 12.3466 27.9766 12.319C27.961 12.2914 27.9384 12.2683 27.911 12.2517C27.8835 12.2352 27.8522 12.2258 27.8199 12.2245C27.7877 12.2233 27.7557 12.2302 27.727 12.2445L23.4916 14.3193V16.0348L27.8955 13.8789V13.8777ZM10.2561 20.8011C10.1962 20.8304 10.13 20.8456 10.063 20.8454C9.99601 20.8452 9.92998 20.8296 9.87027 20.7999L0.273021 16.0255C0.244397 16.0112 0.212486 16.0044 0.180353 16.0056C0.14822 16.0068 0.116944 16.016 0.0895286 16.0324C0.0621134 16.0488 0.0394799 16.0719 0.0238017 16.0993C0.00812358 16.1267 -7.25448e-05 16.1576 4.83779e-07 16.189V17.4408C-3.893e-05 17.4922 0.0144665 17.5425 0.0419114 17.5863C0.0693563 17.63 0.10867 17.6656 0.155503 17.6889L9.86552 22.5189C9.92517 22.5482 9.99103 22.5635 10.0578 22.5635C10.1246 22.5635 10.1905 22.5482 10.2501 22.5189L15.5075 19.9457V18.2302L10.2561 20.8011ZM10.2679 17.3643C10.2079 17.3939 10.1415 17.4092 10.0743 17.409C10.0071 17.4088 9.94081 17.3931 9.88095 17.3632L0.273021 12.583C0.244397 12.5687 0.212486 12.5618 0.180353 12.563C0.14822 12.5642 0.116944 12.5735 0.0895286 12.5899C0.0621134 12.6063 0.0394799 12.6293 0.0238017 12.6567C0.00812358 12.6841 -7.25448e-05 12.715 4.83779e-07 12.7464V14.0562C0.000384245 14.0899 0.0102137 14.1228 0.0284208 14.1514C0.0466279 14.1801 0.0725164 14.2032 0.103273 14.2185L9.87621 19.081C9.93576 19.1105 10.0016 19.126 10.0684 19.1262C10.1352 19.1264 10.2011 19.1113 10.2608 19.0821L15.5075 16.5135V14.798L10.2667 17.3643H10.2679ZM27.8955 10.4467C27.927 10.4316 27.9534 10.4081 27.9719 10.379C27.9903 10.3499 28.0001 10.3164 28 10.2822V8.97699C28.0001 8.94559 27.9919 8.9147 27.9762 8.88729C27.9605 8.85987 27.9379 8.83685 27.9105 8.82044C27.883 8.80403 27.8518 8.79478 27.8196 8.79357C27.7875 8.79237 27.7556 8.79925 27.727 8.81356L23.4916 10.8884V12.6039L27.8955 10.4467ZM0.332373 10.5627C0.301106 10.5778 0.274796 10.6012 0.256403 10.6302C0.238011 10.6592 0.228266 10.6926 0.228266 10.7267C0.228266 10.7608 0.238011 10.7942 0.256403 10.8232C0.274796 10.8521 0.301106 10.8755 0.332373 10.8907L9.88689 15.643C9.9465 15.6729 10.0125 15.6887 10.0795 15.6891C10.1465 15.6895 10.2127 15.6745 10.2727 15.6454L14.7205 13.4662L4.64253 8.45308L0.332373 10.5627ZM23.4916 9.17172L27.6676 7.12705C27.6989 7.11189 27.7252 7.0885 27.7436 7.05952C27.762 7.03054 27.7717 6.99713 27.7717 6.96304C27.7717 6.92895 27.762 6.89553 27.7436 6.86656C27.7252 6.83758 27.6989 6.81419 27.6676 6.79903L18.1131 2.04551C18.0534 2.01579 17.9874 2.0002 17.9204 2C17.8533 1.9998 17.7872 2.01499 17.7273 2.04435L13.505 4.11221L23.4916 9.08016V9.17172ZM17.078 22.6081L21.9211 20.2366V10.0202L11.7624 4.96647L6.38511 7.59765L17.078 12.918V22.6081Z" fill="#1BAE72"/>
</g>
</g>
</svg>
