<svg width="24" height="24" viewBox="0 0 24 24" fill="none" xmlns="http://www.w3.org/2000/svg">
<g id="base_category_ico_games">
<g id="Group">
<path id="Vector" d="M22.7582 16.1024L18.0692 17.9844V7.42441C18.0684 6.85099 17.8403 6.30128 17.4348 5.89581C17.0293 5.49034 16.4796 5.2622 15.9062 5.26141H7.36222L16.8742 1.44341C16.9766 1.40224 17.0862 1.38167 17.1966 1.38286C17.3069 1.38406 17.416 1.40699 17.5175 1.45037C17.619 1.49374 17.711 1.55669 17.7882 1.63563C17.8653 1.71457 17.9262 1.80794 17.9672 1.91041L23.2252 15.0104C23.308 15.2171 23.3054 15.4483 23.2178 15.6531C23.1302 15.8579 22.9649 16.0195 22.7582 16.1024ZM16.7462 7.42441V21.5404C16.7462 21.7632 16.6577 21.9768 16.5002 22.1344C16.3427 22.2919 16.129 22.3804 15.9062 22.3804H1.78922C1.56644 22.3804 1.35278 22.2919 1.19525 22.1344C1.03772 21.9768 0.949219 21.7632 0.949219 21.5404V7.42441C0.949219 7.20163 1.03772 6.98797 1.19525 6.83044C1.35278 6.67291 1.56644 6.58441 1.78922 6.58441H15.9052C16.128 6.58441 16.3417 6.67291 16.4992 6.83044C16.6567 6.98797 16.7462 7.20163 16.7462 7.42441ZM5.97822 18.4074C5.97822 18.2689 5.95094 18.1318 5.89795 18.0039C5.84496 17.8759 5.76728 17.7597 5.66936 17.6618C5.57144 17.5638 5.4552 17.4862 5.32726 17.4332C5.19932 17.3802 5.0622 17.3529 4.92372 17.3529C4.78524 17.3529 4.64812 17.3802 4.52018 17.4332C4.39224 17.4862 4.27599 17.5638 4.17807 17.6618C4.08016 17.7597 4.00248 17.8759 3.94949 18.0039C3.89649 18.1318 3.86922 18.2689 3.86922 18.4074C3.86922 18.6871 3.98032 18.9553 4.17807 19.1531C4.37583 19.3508 4.64405 19.4619 4.92372 19.4619C5.20339 19.4619 5.47161 19.3508 5.66936 19.1531C5.86712 18.9553 5.97822 18.6871 5.97822 18.4074ZM5.97822 10.5584C5.97822 10.2789 5.86717 10.0108 5.66951 9.81312C5.47185 9.61545 5.20376 9.50441 4.92422 9.50441C4.64468 9.50441 4.37659 9.61545 4.17893 9.81312C3.98126 10.0108 3.87022 10.2789 3.87022 10.5584C3.87022 10.8379 3.98126 11.106 4.17893 11.3037C4.37659 11.5014 4.64468 11.6124 4.92422 11.6124C5.20376 11.6124 5.47185 11.5014 5.66951 11.3037C5.86717 11.106 5.97822 10.8379 5.97822 10.5584ZM9.90222 14.6884C9.90657 14.5473 9.88253 14.4068 9.83155 14.2752C9.78056 14.1436 9.70366 14.0236 9.6054 13.9222C9.50714 13.8209 9.38954 13.7403 9.25955 13.6853C9.12957 13.6303 8.98986 13.6019 8.84872 13.6019C8.70757 13.6019 8.56786 13.6303 8.43788 13.6853C8.3079 13.7403 8.19029 13.8209 8.09204 13.9222C7.99378 14.0236 7.91688 14.1436 7.86589 14.2752C7.81491 14.4068 7.79087 14.5473 7.79522 14.6884C7.80366 14.9622 7.91835 15.2219 8.115 15.4126C8.31164 15.6033 8.5748 15.7099 8.84872 15.7099C9.12264 15.7099 9.38579 15.6033 9.58244 15.4126C9.77909 15.2219 9.89378 14.9622 9.90222 14.6884ZM13.8272 18.4074C13.8272 18.2689 13.7999 18.1317 13.7469 18.0037C13.6939 17.8757 13.6162 17.7594 13.5182 17.6614C13.4203 17.5634 13.3039 17.4857 13.176 17.4327C13.048 17.3797 12.9108 17.3524 12.7722 17.3524C12.6337 17.3524 12.4965 17.3797 12.3685 17.4327C12.2405 17.4857 12.1242 17.5634 12.0262 17.6614C11.9283 17.7594 11.8505 17.8757 11.7975 18.0037C11.7445 18.1317 11.7172 18.2689 11.7172 18.4074C11.7172 18.6872 11.8284 18.9556 12.0262 19.1534C12.2241 19.3513 12.4924 19.4624 12.7722 19.4624C13.052 19.4624 13.3204 19.3513 13.5182 19.1534C13.7161 18.9556 13.8272 18.6872 13.8272 18.4074ZM13.8272 10.5584C13.8272 10.2789 13.7162 10.0108 13.5185 9.81312C13.3208 9.61545 13.0528 9.50441 12.7732 9.50441C12.4937 9.50441 12.2256 9.61545 12.0279 9.81312C11.8303 10.0108 11.7192 10.2789 11.7192 10.5584C11.7277 10.8322 11.8423 11.0919 12.039 11.2826C12.2356 11.4733 12.4988 11.5799 12.7727 11.5799C13.0466 11.5799 13.3098 11.4733 13.5064 11.2826C13.7031 11.0919 13.8178 10.8322 13.8262 10.5584H13.8272Z" fill="url(#paint0_linear_128_6725)"/>
</g>
</g>
<defs>
<linearGradient id="paint0_linear_128_6725" x1="22.548" y1="1.38281" x2="0.0397575" y2="3.75512" gradientUnits="userSpaceOnUse">
<stop stop-color="#1BAE72"/>
<stop offset="1" stop-color="#146444"/>
</linearGradient>
</defs>
</svg>
