<svg width="54" height="40" viewBox="0 0 54 40" fill="none" xmlns="http://www.w3.org/2000/svg">
<g id="gamstop-logo.svg" clip-path="url(#clip0_128_23941)">
<g id="Group">
<path id="Vector" d="M51.411 0.5H11.056C5.60004 0.5 1.16504 4.935 1.16504 10.391V22.27V37.476C1.16504 38.585 2.08004 39.5 3.18904 39.5H43.544C49 39.5 53.435 35.065 53.435 29.609V2.524C53.435 1.415 52.52 0.5 51.411 0.5ZM52.009 29.644C52.009 34.343 48.19 38.162 43.491 38.162H3.13604C2.78404 38.162 2.48504 37.863 2.48504 37.511V21.285C2.48504 20.933 2.78404 20.634 3.13604 20.634H51.358C51.71 20.634 52.009 20.933 52.009 21.285V29.644ZM52.009 18.786C52.009 19.138 51.71 19.437 51.358 19.437H3.13604C2.78404 19.437 2.48504 19.138 2.48504 18.786V10.426C2.48504 5.727 6.30404 1.908 11.003 1.908H51.358C51.71 1.908 52.009 2.207 52.009 2.559V18.786Z" fill="white"/>
<path id="Vector_2" d="M18.9925 9.89672H13.8885C13.8185 9.89672 13.7655 9.94972 13.7655 10.0197V12.5887C13.7655 12.6587 13.8185 12.7117 13.8885 12.7117H16.1235C16.1935 12.7117 16.2465 12.7647 16.2465 12.8347V13.2747C16.2465 13.3097 16.2285 13.3627 16.1935 13.3807C15.8945 13.6097 15.5595 13.7677 15.1905 13.8557C14.8035 13.9617 14.4165 13.9967 14.0285 13.9617C13.6415 13.9437 13.2715 13.8387 12.9025 13.6797C12.5325 13.5217 12.2165 13.2927 11.9165 12.9937C11.5995 12.6767 11.3535 12.3077 11.1775 11.8847C11.0195 11.4627 10.9315 11.0397 10.9315 10.6177C10.9315 10.1957 11.0015 9.77272 11.1775 9.35072C11.3355 8.94572 11.5825 8.57672 11.9165 8.24172C12.2335 7.90772 12.6025 7.66072 13.0255 7.50272C13.4475 7.34472 13.8705 7.25672 14.2925 7.25672C14.7145 7.25672 15.1375 7.34472 15.5595 7.50272C15.9295 7.66072 16.2815 7.87272 16.5805 8.15372C16.6335 8.20672 16.7035 8.20672 16.7565 8.15372L18.6045 6.30572C18.6575 6.27072 18.6575 6.18272 18.6045 6.12972C18.0235 5.56672 17.3545 5.12672 16.6335 4.84472C15.8595 4.54572 15.0845 4.38672 14.2755 4.38672C13.4665 4.38672 12.6915 4.54472 11.9175 4.84472C11.1605 5.14472 10.4745 5.60272 9.85848 6.21872C9.26048 6.81672 8.80248 7.50272 8.50348 8.27772C8.20448 9.05172 8.06348 9.82672 8.06348 10.6357C8.06348 11.4277 8.20448 12.2197 8.50348 12.9767C8.80248 13.7337 9.24248 14.4197 9.85848 15.0357C10.4565 15.6517 11.1435 16.1097 11.9175 16.4087C12.6915 16.7077 13.4665 16.8667 14.2755 16.8667C14.5925 16.8667 14.9265 16.8487 15.2615 16.7967C15.5435 16.7437 15.8075 16.6907 16.0715 16.6027C16.1595 16.5847 16.2475 16.6377 16.2475 16.7257C16.2475 16.7957 16.3005 16.8487 16.3705 16.8487H18.9925C19.0625 16.8487 19.1155 16.7957 19.1155 16.7257V10.0207C19.1155 9.94972 19.0455 9.89672 18.9925 9.89672Z" fill="white"/>
<path id="Vector_3" d="M27.8452 4.44141H25.2752C25.2222 4.44141 25.1692 4.47641 25.1522 4.52941L21.0162 16.6904C20.9982 16.7784 21.0512 16.8664 21.1392 16.8664H23.9022C23.9552 16.8664 24.0082 16.8314 24.0252 16.7784L24.4832 15.4404C24.5012 15.3874 24.5532 15.3524 24.6062 15.3524H28.3372C28.3902 15.3524 28.4432 15.3874 28.4602 15.4404L28.9002 16.7784C28.9182 16.8314 28.9702 16.8664 29.0232 16.8484H31.7692C31.8572 16.8484 31.9272 16.7784 31.8922 16.6904L27.9682 4.52941C27.9502 4.47641 27.8972 4.44141 27.8452 4.44141ZM27.3342 12.5024H25.6802C25.5922 12.5024 25.5392 12.4144 25.5572 12.3444L26.4022 9.86241C26.4552 9.73941 26.6132 9.73941 26.6482 9.86241L27.4582 12.3444C27.4752 12.4144 27.4222 12.5024 27.3342 12.5024Z" fill="white"/>
<path id="Vector_4" d="M45.5859 4.42578H42.8579C42.8049 4.42578 42.7519 4.46078 42.7519 4.51378L40.2349 11.8708C40.1819 11.9768 40.0239 11.9768 39.9889 11.8708L37.4189 4.51378C37.4009 4.46078 37.3489 4.42578 37.2959 4.42578H34.5679C34.4979 4.42578 34.4449 4.47878 34.4449 4.54878L33.6709 16.7278C33.6709 16.7978 33.7239 16.8688 33.7939 16.8688H36.4159C36.4859 16.8688 36.5389 16.8158 36.5389 16.7458L36.8209 12.2228C36.8209 12.0818 37.0149 12.0648 37.0669 12.1878L38.6509 16.7808C38.6689 16.8338 38.7209 16.8688 38.7739 16.8688H41.4489C41.5019 16.8688 41.5549 16.8338 41.5719 16.7808L43.0499 12.3988C43.0849 12.2758 43.2959 12.2928 43.2959 12.4338L43.5599 16.7458C43.5599 16.8158 43.6129 16.8688 43.6829 16.8688H46.2879C46.3579 16.8688 46.4109 16.7988 46.4109 16.7278L45.7089 4.54878C45.7089 4.47778 45.6559 4.42578 45.5859 4.42578Z" fill="white"/>
<path id="Vector_5" d="M12.0585 27.9201C11.8645 27.8321 11.6535 27.7621 11.4605 27.6911C11.2665 27.6211 11.0735 27.5501 10.8795 27.4971C10.6505 27.4271 10.4575 27.3561 10.2635 27.2861C10.0695 27.2161 9.89346 27.1281 9.73546 27.0401C9.57746 26.9341 9.45346 26.7761 9.40146 26.5821C9.34846 26.3881 9.36646 26.1951 9.45446 26.0191C9.50746 25.8781 9.61246 25.7901 9.71846 25.7201C9.84146 25.6501 9.94746 25.6141 10.0525 25.5971C10.1585 25.5791 10.2465 25.5791 10.3345 25.5971C10.4045 25.5971 10.4405 25.6151 10.4755 25.6151C10.4935 25.6151 10.4935 25.6151 10.5105 25.6151C10.6335 25.6501 10.7745 25.7031 10.9325 25.8091C11.0735 25.8791 11.1615 26.0381 11.1785 26.2311C11.1785 26.2841 11.2315 26.3371 11.3015 26.3371H13.8355C13.9055 26.3371 13.9585 26.2841 13.9585 26.2141C13.9585 25.8441 13.8885 25.4921 13.7645 25.1401C13.6235 24.7531 13.4305 24.4181 13.1835 24.1021C12.9375 23.8031 12.6375 23.5211 12.2855 23.3101C11.9335 23.0991 11.5465 22.9401 11.1235 22.8351C10.6835 22.7121 10.2435 22.6771 9.82146 22.7121C9.39946 22.7471 8.99446 22.8531 8.62446 23.0111C8.25446 23.1691 7.90246 23.3981 7.60346 23.6801C7.30446 23.9621 7.05746 24.2961 6.84646 24.6831C6.61746 25.1051 6.49446 25.5451 6.45946 26.0031C6.42446 26.4431 6.45946 26.9011 6.58246 27.3231C6.70546 27.7451 6.89946 28.1501 7.16346 28.5201C7.44546 28.8901 7.77946 29.2061 8.16646 29.4531C8.46546 29.6471 8.78246 29.8051 9.08146 29.9111C9.38046 30.0171 9.67946 30.1221 9.96146 30.2101C10.1025 30.2801 10.2605 30.3161 10.4015 30.3681C10.5425 30.4211 10.6835 30.4741 10.8065 30.5261C10.9645 30.6141 11.1055 30.7021 11.1935 30.7901C11.2995 30.8961 11.3695 30.9841 11.4225 31.0891C11.4755 31.1771 11.4925 31.2831 11.5105 31.3711C11.5285 31.4591 11.5285 31.5291 11.5285 31.5821C11.5285 31.6351 11.5285 31.7051 11.5105 31.7931C11.5105 31.8811 11.4755 31.9871 11.4225 32.0751C11.3695 32.1811 11.2815 32.2691 11.1935 32.3741C11.0875 32.4621 10.9645 32.5501 10.8065 32.6201C10.5955 32.7261 10.3485 32.7781 10.1205 32.7611C9.89146 32.7611 9.68046 32.6911 9.46946 32.5501C9.36346 32.4801 9.22346 32.3561 9.08246 32.1631C8.95946 31.9871 8.88846 31.7761 8.87146 31.4941C8.87146 31.4241 8.81846 31.3711 8.74846 31.3711H6.14546C6.07546 31.3711 6.02246 31.4241 6.02246 31.4941C6.04046 32.1801 6.21646 32.8321 6.53246 33.4121C6.86646 34.0461 7.34246 34.5561 7.95846 34.9431C8.31046 35.1541 8.68046 35.3301 9.06746 35.4361C9.45446 35.5421 9.85946 35.5941 10.2465 35.5941C10.5635 35.5941 10.8625 35.5591 11.1615 35.5591C11.4785 35.4891 11.7595 35.4011 12.0595 35.2601C12.7985 34.9081 13.3795 34.4151 13.8015 33.7641C14.2235 33.1131 14.4355 32.3911 14.4355 31.5991C14.4355 30.8071 14.2245 30.0681 13.8015 29.4171C13.3785 28.7471 12.7975 28.2541 12.0585 27.9201Z" fill="white"/>
<path id="Vector_6" d="M46.9409 24.7535C46.4659 24.2785 45.9199 23.9085 45.3039 23.6275C44.6879 23.3455 44.0189 23.2055 43.3149 23.1875H40.5869C40.5169 23.1875 40.4639 23.2405 40.4639 23.3105V35.4715C40.4639 35.5415 40.5169 35.5945 40.5869 35.5945H43.1919C43.2619 35.5945 43.3149 35.5415 43.3149 35.4715V33.7465C43.3149 33.6765 43.3679 33.6235 43.4379 33.6235C44.0889 33.6055 44.7229 33.4655 45.3029 33.2015C45.9189 32.9195 46.4649 32.5505 46.9399 32.0755C47.3979 31.6005 47.7669 31.0545 48.0309 30.4215C48.2949 29.7875 48.4359 29.1195 48.4359 28.4155C48.4359 27.6935 48.2949 27.0255 48.0309 26.4095C47.7679 25.7745 47.4159 25.2285 46.9409 24.7535ZM45.4099 29.2765C45.3039 29.5585 45.1459 29.8045 44.9349 30.0155C44.7239 30.2265 44.4949 30.4025 44.2129 30.5255C43.9669 30.6485 43.7199 30.7195 43.4559 30.7365C43.3859 30.7545 43.3149 30.6835 43.3149 30.6135V26.1435C43.3149 26.0735 43.3849 26.0205 43.4559 26.0205C43.7199 26.0555 43.9839 26.1265 44.2129 26.2315C44.4949 26.3545 44.7229 26.5305 44.9349 26.7415C45.1289 26.9525 45.2869 27.1995 45.4099 27.4805C45.5329 27.7625 45.5859 28.0615 45.5859 28.3785C45.5859 28.6955 45.5329 28.9945 45.4099 29.2765Z" fill="white"/>
<path id="Vector_7" d="M35.9764 24.981C35.4134 24.435 34.7624 23.995 34.0054 23.661C33.2484 23.327 32.4564 23.168 31.5944 23.168C30.7324 23.168 29.9404 23.344 29.1834 23.661C28.4264 23.978 27.7754 24.418 27.2124 24.981C26.6664 25.544 26.2264 26.195 25.8924 26.952C25.5584 27.691 25.3994 28.501 25.3994 29.363C25.3994 30.208 25.5574 31.017 25.8924 31.774C26.2094 32.531 26.6494 33.182 27.2124 33.745C27.7754 34.291 28.4264 34.731 29.1834 35.065C29.9404 35.399 30.7494 35.558 31.5944 35.558C32.4394 35.558 33.2484 35.4 34.0054 35.065C34.7624 34.748 35.4134 34.308 35.9764 33.745C36.5394 33.182 36.9794 32.531 37.3144 31.774C37.6484 31.035 37.8074 30.225 37.8074 29.363C37.8074 28.518 37.6494 27.709 37.3144 26.952C36.9804 26.195 36.5404 25.544 35.9764 24.981ZM34.7094 30.683C34.5334 31.105 34.2874 31.457 33.9874 31.757C33.6704 32.056 33.3184 32.303 32.9134 32.479C32.5084 32.655 32.0684 32.743 31.6114 32.743C31.1364 32.743 30.7134 32.655 30.3094 32.479C29.8874 32.303 29.5354 32.057 29.2354 31.757C28.9364 31.44 28.6894 31.088 28.5134 30.683C28.3374 30.278 28.2494 29.838 28.2494 29.381C28.2494 28.924 28.3374 28.483 28.5134 28.079C28.6894 27.657 28.9354 27.305 29.2354 27.005C29.5524 26.706 29.9044 26.459 30.3094 26.283C30.7144 26.107 31.1544 26.019 31.6114 26.019C32.0694 26.019 32.5094 26.107 32.9134 26.283C33.3354 26.459 33.6874 26.705 33.9874 27.005C34.2864 27.322 34.5334 27.674 34.7094 28.079C34.8854 28.484 34.9734 28.924 34.9734 29.381C34.9734 29.838 34.8854 30.278 34.7094 30.683Z" fill="white"/>
<path id="Vector_8" d="M23.9389 23.1836H16.5819C16.5119 23.1836 16.4589 23.2366 16.4589 23.3066V25.9286C16.4409 25.9986 16.5119 26.0516 16.5819 26.0516H18.8169V35.4676C18.8169 35.5376 18.8699 35.5906 18.9399 35.5906H21.5619C21.6319 35.5906 21.6849 35.5376 21.6849 35.4676V26.0516H23.9379C24.0079 26.0516 24.0609 25.9986 24.0609 25.9286V23.3066C24.0619 23.2366 24.0089 23.1836 23.9389 23.1836Z" fill="white"/>
</g>
</g>
<defs>
<clipPath id="clip0_128_23941">
<rect width="53" height="40" fill="white" transform="translate(0.799805)"/>
</clipPath>
</defs>
</svg>
