<svg width="24" height="24" viewBox="0 0 24 24" fill="none" xmlns="http://www.w3.org/2000/svg">
<g id="base_ui_ico_competition">
<path id="Vector" d="M16.466 22.3626H7.55998C7.53791 22.3624 7.51611 22.3577 7.49597 22.3487C7.47582 22.3396 7.45776 22.3265 7.44292 22.3102C7.42808 22.2939 7.41678 22.2746 7.40974 22.2537C7.40269 22.2328 7.40005 22.2106 7.40198 22.1886C7.45318 21.6408 7.70655 21.1316 8.11272 20.7604C8.51889 20.3891 9.04873 20.1825 9.59898 20.1806H10.649L10.852 17.4726H13.175L13.378 20.1806H14.428C14.9783 20.1822 15.5083 20.3888 15.9145 20.7601C16.3207 21.1314 16.574 21.6407 16.625 22.1886C16.627 22.2106 16.6245 22.2328 16.6176 22.2538C16.6107 22.2747 16.5996 22.2941 16.585 22.3106C16.5701 22.3271 16.5519 22.3403 16.5315 22.3492C16.5112 22.3582 16.4882 22.3627 16.466 22.3626ZM5.23998 11.0356C3.29698 9.38163 2.01898 7.02963 1.84398 4.39563H3.65098C3.63998 4.11863 3.63198 3.83863 3.63198 3.55563C3.63198 3.42063 3.63598 3.28763 3.63898 3.15563H0.741984C0.70008 3.15563 0.659892 3.17228 0.630262 3.20191C0.600631 3.23154 0.583984 3.27172 0.583984 3.31363V3.77563C0.583984 7.97963 3.05998 11.6376 6.68598 13.4796C6.28088 12.9064 5.90958 12.3101 5.57398 11.6936C5.45753 11.4769 5.34616 11.2575 5.23998 11.0356ZM20.386 3.15563C20.389 3.28763 20.393 3.42063 20.393 3.55563C20.393 3.83863 20.385 4.11863 20.374 4.39563H22.181C22.006 7.02963 20.728 9.38163 18.785 11.0356C18.6788 11.2575 18.5674 11.4769 18.451 11.6936C18.1154 12.3101 17.7441 12.9064 17.339 13.4796C20.965 11.6386 23.441 7.97963 23.441 3.77563V3.31363C23.441 3.27172 23.4243 3.23154 23.3947 3.20191C23.3651 3.17228 23.3249 3.15563 23.283 3.15563H20.386ZM18.893 1.64063H5.13198C5.09308 1.6406 5.05552 1.65482 5.0264 1.68062C4.99728 1.70642 4.97863 1.742 4.97398 1.78063C4.90598 2.36963 4.87198 2.96163 4.87298 3.55463C4.87298 9.85263 7.68598 13.0306 10.526 16.1796C10.5409 16.1962 10.5591 16.2095 10.5794 16.2186C10.5997 16.2277 10.6217 16.2325 10.644 16.2326H13.381C13.4033 16.2326 13.4253 16.2278 13.4456 16.2187C13.4659 16.2095 13.4841 16.1962 13.499 16.1796C16.339 13.0306 19.152 9.85263 19.152 3.55463C19.153 2.96163 19.119 2.36963 19.052 1.78063C19.0473 1.74183 19.0285 1.70611 18.9992 1.68029C18.9699 1.65447 18.9321 1.64035 18.893 1.64063Z" fill="url(#paint0_linear_128_6753)"/>
</g>
<defs>
<linearGradient id="paint0_linear_128_6753" x1="22.6863" y1="1.64063" x2="-0.327664" y2="4.1558" gradientUnits="userSpaceOnUse">
<stop stop-color="#1BAE72"/>
<stop offset="1" stop-color="#146444"/>
</linearGradient>
</defs>
</svg>
