<svg width="24" height="24" viewBox="0 0 24 24" fill="none" xmlns="http://www.w3.org/2000/svg">
<g id="base_ui_ico_press">
<g id="Group">
<path id="Vector" d="M22.6168 2.51578C22.6168 2.293 22.5283 2.07934 22.3708 1.92181C22.2133 1.76428 21.9996 1.67578 21.7768 1.67578H6.02881C5.80603 1.67578 5.59237 1.76428 5.43484 1.92181C5.27731 2.07934 5.18881 2.293 5.18881 2.51578V18.8628C5.18881 18.9442 5.17278 19.0248 5.14162 19.1C5.11046 19.1753 5.06479 19.2436 5.00722 19.3012C4.94965 19.3588 4.8813 19.4044 4.80608 19.4356C4.73085 19.4667 4.65023 19.4828 4.56881 19.4828C4.48739 19.4828 4.40677 19.4667 4.33155 19.4356C4.25633 19.4044 4.18798 19.3588 4.13041 19.3012C4.07283 19.2436 4.02716 19.1753 3.99601 19.1C3.96485 19.0248 3.94881 18.9442 3.94881 18.8628V9.69078H2.22281C2.00003 9.69078 1.78637 9.77928 1.62884 9.93681C1.47131 10.0943 1.38281 10.308 1.38281 10.5308V20.4208C1.38281 20.9255 1.58331 21.4095 1.94019 21.7664C2.29707 22.1233 2.78111 22.3238 3.28581 22.3238H20.7138C21.2186 22.3235 21.7026 22.1228 22.0595 21.7658C22.4164 21.4087 22.6168 20.9246 22.6168 20.4198V2.51578ZM7.79181 5.60978C7.79181 5.58895 7.79593 5.56832 7.80393 5.54909C7.81194 5.52985 7.82367 5.51239 7.83844 5.4977C7.85322 5.48302 7.87076 5.4714 7.89004 5.46352C7.90933 5.45564 7.92998 5.45165 7.95081 5.45178H12.9208C12.9627 5.45178 13.0029 5.46843 13.0325 5.49806C13.0622 5.52769 13.0788 5.56788 13.0788 5.60978V10.5798C13.0788 10.6006 13.0747 10.6212 13.0667 10.6405C13.0587 10.6597 13.047 10.6772 13.0322 10.6919C13.0174 10.7065 12.9999 10.7182 12.9806 10.726C12.9613 10.7339 12.9406 10.7379 12.9198 10.7378H7.94981C7.90791 10.7378 7.86772 10.7211 7.83809 10.6915C7.80846 10.6619 7.79181 10.6217 7.79181 10.5798V5.60978ZM20.0138 18.3898C20.0137 18.4317 19.9972 18.4719 19.9678 18.5018C19.938 18.5313 19.8978 18.5478 19.8558 18.5478H7.94981C7.92898 18.5479 7.90833 18.5439 7.88904 18.536C7.86976 18.5282 7.85222 18.5165 7.83744 18.5019C7.82267 18.4872 7.81094 18.4697 7.80293 18.4505C7.79493 18.4312 7.79081 18.4106 7.79081 18.3898V17.3248C7.79081 17.3039 7.79493 17.2833 7.80293 17.2641C7.81094 17.2449 7.82267 17.2274 7.83744 17.2127C7.85222 17.198 7.86976 17.1864 7.88904 17.1785C7.90833 17.1706 7.92898 17.1666 7.94981 17.1668H19.8548C19.8967 17.1669 19.9369 17.1834 19.9668 17.2128C19.9962 17.2426 20.0127 17.2829 20.0128 17.3248L20.0138 18.3898ZM20.0138 14.4848C20.0135 14.516 20.0041 14.5465 19.9867 14.5725C19.9693 14.5984 19.9446 14.6187 19.9158 14.6308C19.8968 14.6386 19.8764 14.6427 19.8558 14.6428H7.94981C7.91839 14.6427 7.8877 14.6333 7.86156 14.6159C7.83542 14.5985 7.81499 14.5737 7.80281 14.5448C7.79494 14.5258 7.79086 14.5054 7.79081 14.4848V13.4198C7.79108 13.3778 7.80794 13.3376 7.83773 13.308C7.86752 13.2784 7.90782 13.2618 7.94981 13.2618H19.8548C19.8756 13.2618 19.8961 13.2659 19.9153 13.2738C19.9344 13.2817 19.9519 13.2934 19.9665 13.3081C19.9812 13.3227 19.9928 13.3401 20.0008 13.3593C20.0087 13.3785 20.0128 13.399 20.0128 13.4198L20.0138 14.4848ZM20.0138 10.5798C20.0135 10.611 20.0041 10.6415 19.9867 10.6675C19.9693 10.6934 19.9446 10.7137 19.9158 10.7258C19.8968 10.7337 19.8764 10.7377 19.8558 10.7378H15.7498C15.7079 10.7378 15.6677 10.7211 15.6381 10.6915C15.6085 10.6619 15.5918 10.6217 15.5918 10.5798V9.51478C15.5918 9.47288 15.6085 9.43269 15.6381 9.40306C15.6677 9.37343 15.7079 9.35678 15.7498 9.35678H19.8548C19.8966 9.3573 19.9364 9.37411 19.966 9.40363C19.9955 9.43315 20.0123 9.47304 20.0128 9.51478L20.0138 10.5798ZM20.0138 6.67478C20.0135 6.70603 20.0041 6.73651 19.9867 6.76245C19.9693 6.7884 19.9446 6.80867 19.9158 6.82078C19.8968 6.8286 19.8764 6.83268 19.8558 6.83278H15.7498C15.7079 6.83278 15.6677 6.81613 15.6381 6.7865C15.6085 6.75687 15.5918 6.71669 15.5918 6.67478V5.60978C15.5918 5.56788 15.6085 5.52769 15.6381 5.49806C15.6677 5.46843 15.7079 5.45178 15.7498 5.45178H19.8548C19.8966 5.45204 19.9367 5.46877 19.9662 5.49835C19.9958 5.52792 20.0126 5.56796 20.0128 5.60978L20.0138 6.67478Z" fill="url(#paint0_linear_128_6746)"/>
</g>
</g>
<defs>
<linearGradient id="paint0_linear_128_6746" x1="21.9157" y1="1.67578" x2="0.502846" y2="3.8576" gradientUnits="userSpaceOnUse">
<stop stop-color="#1BAE72"/>
<stop offset="1" stop-color="#146444"/>
</linearGradient>
</defs>
</svg>
