<svg width="13" height="12" viewBox="0 0 13 12" fill="none" xmlns="http://www.w3.org/2000/svg">
<g id="1.svg" clip-path="url(#clip0_301_5242)">
<path id="Vector" d="M10.5 2H2.5V10H10.5V2Z" fill="#F5F5F5"/>
<path id="Vector_2" fill-rule="evenodd" clip-rule="evenodd" d="M1.46444 0.0466538C1.23233 0.107458 1.05714 0.211368 0.874723 0.396315C0.693385 0.580187 0.608668 0.729041 0.546058 0.973856C0.500732 1.15117 0.499691 1.2464 0.500038 5.24802C0.500316 8.74027 0.505383 9.36199 0.534362 9.48495C0.657637 10.0077 1.07081 10.39 1.60632 10.477C1.69576 10.4915 2.3618 10.5009 3.30076 10.501L4.84788 10.5012L5.52742 11.1836C5.9012 11.5589 6.25392 11.8965 6.31122 11.9338C6.4296 12.0108 6.53507 12.0203 6.64766 11.9641C6.68892 11.9435 7.04438 11.6063 7.43756 11.2147L8.15243 10.5027L9.79315 10.4955C11.3043 10.4888 11.444 10.4848 11.5628 10.4456C11.9091 10.3311 12.186 10.1041 12.3416 9.80727C12.5102 9.48572 12.4996 9.79089 12.5 5.24802C12.5003 1.2414 12.4993 1.15134 12.4538 0.973197C12.3925 0.733692 12.2911 0.560301 12.1033 0.373792C11.9214 0.193217 11.7724 0.108534 11.5256 0.0453696C11.3478 -9.51238e-05 11.2519 -0.000962769 6.4904 0.000286643C1.77937 0.00157076 1.63141 0.00292437 1.46444 0.0466538ZM6.59508 1.89783C6.64092 1.91057 6.70641 1.95017 6.74056 1.98581C6.77468 2.02145 6.99346 2.43824 7.22665 2.91194C7.45991 3.38564 7.6543 3.77323 7.65867 3.77323C7.66304 3.77323 8.09353 3.83549 8.6153 3.9116C9.20325 3.99736 9.59231 4.06462 9.63857 4.08857C9.72284 4.13216 9.79797 4.24159 9.81859 4.35067C9.84694 4.5007 9.77899 4.58445 9.06655 5.27759C8.6927 5.64131 8.38361 5.95686 8.37965 5.97876C8.37573 6.00069 8.44164 6.42237 8.52614 6.91588C8.61065 7.40937 8.67975 7.85093 8.67972 7.89716C8.67951 8.07322 8.51781 8.22704 8.3328 8.22721C8.24683 8.22728 8.1035 8.15957 7.36725 7.77114L6.50265 7.31497L5.63452 7.77114C4.8997 8.15728 4.75102 8.22728 4.66633 8.22721C4.48222 8.22704 4.32049 8.07281 4.32028 7.89716C4.32025 7.85093 4.38935 7.40937 4.47386 6.91588C4.55836 6.42237 4.62427 6.00041 4.62035 5.9782C4.61639 5.95599 4.3073 5.64037 3.93345 5.27687C3.22115 4.58427 3.15309 4.50046 3.18141 4.35067C3.20203 4.24162 3.27716 4.13216 3.36129 4.08864C3.40686 4.06507 3.74597 4.00566 4.23543 3.93548C4.67522 3.87242 5.10602 3.80922 5.19268 3.79503L5.35028 3.76921L5.78095 2.89798C6.01806 2.41835 6.23816 2.00254 6.27072 1.97283C6.32305 1.92507 6.4203 1.88204 6.48829 1.87656C6.50116 1.87552 6.54923 1.88509 6.59508 1.89783ZM6.19402 3.64975C6.03361 3.98154 5.87233 4.28733 5.83571 4.32926C5.75197 4.42518 5.72656 4.43139 4.99993 4.53402C4.67119 4.58046 4.3771 4.62401 4.34638 4.63078C4.29665 4.64171 4.34721 4.69825 4.80856 5.14717C5.21965 5.54722 5.33154 5.66915 5.35046 5.73783C5.37017 5.80911 5.35358 5.94554 5.2563 6.51281C5.19133 6.89149 5.1434 7.20655 5.14982 7.2129C5.15621 7.21928 5.43885 7.07852 5.77796 6.90009C6.30299 6.6238 6.4102 6.57559 6.50002 6.57521C6.59063 6.57487 6.69225 6.62043 7.22228 6.8994C7.56153 7.07796 7.84418 7.2189 7.85046 7.21266C7.8567 7.20641 7.80867 6.89149 7.7437 6.51281C7.64635 5.9452 7.62983 5.80915 7.64954 5.73776C7.66853 5.6689 7.77993 5.54764 8.19196 5.1472C8.65667 4.69558 8.7046 4.64199 8.6541 4.63057C8.62311 4.62356 8.30413 4.57539 7.94527 4.52347C7.58638 4.47155 7.27375 4.41887 7.2505 4.40644C7.16248 4.35931 7.08936 4.23482 6.80598 3.64926C6.6455 3.31775 6.50783 3.04653 6.50002 3.04653C6.49217 3.04653 6.3545 3.31796 6.19402 3.64975Z" fill="#1BAE72"/>
</g>
<defs>
<clipPath id="clip0_301_5242">
<rect width="12" height="12" fill="white" transform="translate(0.5)"/>
</clipPath>
</defs>
</svg>
