<svg width="18" height="18" viewBox="0 0 18 18" fill="none" xmlns="http://www.w3.org/2000/svg">
<g clip-path="url(#clip0_301_562)">
<path d="M9 18C13.9706 18 18 13.9706 18 9C18 4.02944 13.9706 0 9 0C4.02944 0 0 4.02944 0 9C0 13.9706 4.02944 18 9 18Z" fill="#FCFCFC"/>
<path d="M14.0867 7.8252C13.8128 7.8252 13.4737 7.8252 12.9128 7.8252C12.9128 9.98632 11.1608 11.7382 8.99977 11.7382C6.83862 11.7382 5.08674 9.98632 5.08674 7.8252C4.70846 7.8252 4.29105 7.8252 3.91284 7.8252C3.91284 10.1531 5.47645 12.1157 7.61079 12.7202C7.37679 13.1647 7.41244 13.7243 7.7467 14.1415C8.18573 13.7896 8.64027 13.4253 9.02586 13.1164C9.41146 13.4254 9.86602 13.7896 10.305 14.1415C10.6426 13.7202 10.6758 13.1534 10.434 12.7068C12.545 12.0875 14.0867 10.1365 14.0867 7.8252Z" fill="#6DA544"/>
<path d="M5.86987 7.43542C5.86987 7.43542 5.86987 9.39194 7.82639 9.39194L8.21768 9.78323H9.00029C9.00029 9.78323 9.39158 8.60932 10.1742 8.60932C10.1742 8.60932 10.1742 7.82671 10.9568 7.82671C11.7394 7.82671 12.1307 7.82671 12.1307 7.82671C12.1307 7.82671 11.7394 6.26148 13.6959 5.08758L12.9133 4.69629C12.9133 4.69629 10.1742 6.65281 8.21768 6.26152V7.04413H7.43506L7.04378 6.65284L5.86987 7.43542Z" fill="#FFDA44"/>
</g>
<defs>
<clipPath id="clip0_301_562">
<rect width="18" height="18" fill="white"/>
</clipPath>
</defs>
</svg>
