<svg width="20" height="20" viewBox="0 0 20 20" fill="none" xmlns="http://www.w3.org/2000/svg">
<path d="M10.1394 13.0751C10.1394 12.583 10.0397 12.1143 9.84032 11.669C9.64096 11.2355 9.36685 10.8546 9.01797 10.5265C8.66909 10.1984 8.25791 9.94065 7.78443 9.75316C7.32342 9.56568 6.82502 9.47194 6.28924 9.47194C5.75346 9.47194 5.25507 9.56568 4.79405 9.75316C4.32057 9.94065 3.90939 10.1984 3.56052 10.5265C3.21164 10.8546 2.93752 11.2355 2.73816 11.669C2.5388 12.1143 2.43912 12.583 2.43912 13.0751C2.43912 13.579 2.5388 14.0477 2.73816 14.4813C2.93752 14.9148 3.21164 15.2957 3.56052 15.6238C3.90939 15.9519 4.32057 16.2096 4.79405 16.3971C5.25507 16.5846 5.75346 16.6784 6.28924 16.6784C6.82502 16.6784 7.32342 16.5846 7.78443 16.3971C8.25791 16.2096 8.66909 15.9519 9.01797 15.6238C9.36685 15.2957 9.64096 14.9148 9.84032 14.4813C10.0397 14.0477 10.1394 13.579 10.1394 13.0751ZM11.5785 13.0751C11.5785 13.7665 11.4414 14.411 11.1673 15.0086C10.8932 15.6062 10.5163 16.1306 10.0366 16.5817C9.55686 17.0328 8.99305 17.3873 8.34513 17.6451C7.70967 17.9029 7.02438 18.0318 6.28924 18.0318C5.55411 18.0318 4.86881 17.9029 4.23335 17.6451C3.58544 17.3873 3.02162 17.0328 2.54192 16.5817C2.06221 16.1306 1.6853 15.6062 1.41118 15.0086C1.13706 14.411 1 13.7665 1 13.0751C1 12.3955 1.13706 11.751 1.41118 11.1417C1.6853 10.5441 2.06221 10.0197 2.54192 9.56861C3.02162 9.11747 3.58544 8.76301 4.23335 8.50522C4.86881 8.24743 5.55411 8.11854 6.28924 8.11854C7.02438 8.11854 7.70967 8.24743 8.34513 8.50522C8.99305 8.76301 9.55686 9.11747 10.0366 9.56861C10.5163 10.0197 10.8932 10.5441 11.1673 11.1417C11.4414 11.751 11.5785 12.3955 11.5785 13.0751ZM10.7748 11.7042L9.6908 10.8253C10.239 10.2277 10.9025 9.7766 11.6813 9.47194C12.46 9.16727 13.2793 9.04424 14.139 9.10283C14.8741 9.16142 15.547 9.34304 16.1575 9.6477C16.7805 9.96408 17.3101 10.3625 17.7462 10.8429C18.1822 11.3233 18.5124 11.8741 18.7367 12.4951C18.961 13.1162 19.042 13.7665 18.9797 14.4461C18.9298 15.1375 18.7367 15.7702 18.4003 16.3444C18.0763 16.9186 17.6558 17.4107 17.1387 17.8208C16.6216 18.231 16.0329 18.5415 15.3725 18.7524C14.6997 18.9633 14.0019 19.0395 13.2793 18.9809C12.4444 18.9223 11.6719 18.6909 10.9617 18.2866C10.2515 17.8824 9.67834 17.3521 9.24225 16.6959L10.4571 15.9753C10.7686 16.444 11.1829 16.8248 11.7 17.1178C12.2171 17.4107 12.7809 17.5806 13.3914 17.6275C13.9272 17.6744 14.4318 17.6216 14.9053 17.4693C15.3912 17.317 15.8242 17.0914 16.2042 16.7926C16.5843 16.4938 16.8926 16.1335 17.1294 15.7116C17.3661 15.2898 17.5094 14.8328 17.5593 14.3407C17.5966 13.8485 17.5343 13.3739 17.3724 12.917C17.2104 12.4717 16.9705 12.0733 16.6528 11.7217C16.3351 11.3702 15.9519 11.0831 15.5034 10.8605C15.0548 10.6379 14.5626 10.5031 14.0269 10.4562C13.4039 10.4094 12.8058 10.4972 12.2326 10.7199C11.6595 10.9425 11.1735 11.2706 10.7748 11.7042ZM13.1858 5.13051L14.5689 5.44689C14.4069 6.10308 14.2979 6.75928 14.2418 7.41547C14.1857 8.07166 14.1701 8.67513 14.1951 9.22586C14.2075 9.28445 14.2138 9.32839 14.2138 9.35769C14.2138 9.38698 14.2138 9.40749 14.2138 9.41921L12.7746 9.54224C12.7746 9.51881 12.7746 9.48658 12.7746 9.44557C12.7746 9.40456 12.7746 9.35476 12.7746 9.29617C12.7373 8.67513 12.7466 8.00722 12.8027 7.29243C12.8587 6.57765 12.9865 5.85701 13.1858 5.13051ZM7.80312 9.1204L6.45745 8.62826C6.60697 8.26501 6.85617 7.83145 7.20505 7.32759C7.55393 6.82372 8.02117 6.30228 8.60679 5.76327C8.73139 5.65781 8.8591 5.54942 8.98993 5.4381C9.12076 5.32678 9.25471 5.22425 9.39177 5.13051L10.2889 6.18511C10.1643 6.27885 10.0459 6.36966 9.93377 6.45754C9.82163 6.54543 9.70949 6.6421 9.59735 6.74756C9.31078 7.00535 9.05223 7.27486 8.82172 7.55608C8.59121 7.83731 8.38251 8.11854 8.19561 8.39976C8.09593 8.56381 8.01183 8.70735 7.9433 8.83039C7.87477 8.95343 7.82804 9.0501 7.80312 9.1204ZM14.0456 3.32012C13.5721 3.01545 13.0924 2.77817 12.6064 2.60826C12.1205 2.43835 11.6346 2.3534 11.1486 2.3534C10.6627 2.3534 10.1767 2.43835 9.6908 2.60826C9.20487 2.77817 8.72516 3.01545 8.25168 3.32012C8.12708 3.40214 8.00248 3.48416 7.87788 3.56619C7.75328 3.64821 7.64114 3.73609 7.54147 3.82984C7.64114 3.91186 7.75328 3.99681 7.87788 4.0847C8.00248 4.17258 8.12708 4.25753 8.25168 4.33956C8.72516 4.6325 9.20487 4.86393 9.6908 5.03384C10.1767 5.20374 10.6627 5.2887 11.1486 5.2887C11.6346 5.2887 12.1205 5.20374 12.6064 5.03384C13.0924 4.86393 13.5721 4.6325 14.0456 4.33956C14.1826 4.25753 14.3103 4.17258 14.4287 4.0847C14.5471 3.99681 14.6623 3.91186 14.7745 3.82984C14.6623 3.73609 14.5471 3.64821 14.4287 3.56619C14.3103 3.48416 14.1826 3.40214 14.0456 3.32012ZM16.3444 4.28683C16.1949 4.43916 15.9955 4.61786 15.7463 4.82292C15.4971 5.02798 15.1981 5.24183 14.8492 5.46446C14.2761 5.82771 13.678 6.1148 13.055 6.32572C12.432 6.53664 11.7965 6.6421 11.1486 6.6421C10.5007 6.6421 9.86836 6.53664 9.25159 6.32572C8.63482 6.1148 8.03363 5.82771 7.44802 5.46446C7.09914 5.24183 6.8001 5.02798 6.5509 4.82292C6.3017 4.61786 6.10234 4.43916 5.95282 4.28683L5.50427 3.82984L5.95282 3.37284C6.10234 3.22051 6.3017 3.03889 6.5509 2.82797C6.8001 2.61705 7.09914 2.40613 7.44802 2.19521C8.03363 1.82024 8.63482 1.5273 9.25159 1.31638C9.86836 1.10546 10.5007 1 11.1486 1C11.7965 1 12.432 1.10546 13.055 1.31638C13.678 1.5273 14.2761 1.82024 14.8492 2.19521C15.1981 2.40613 15.4971 2.61705 15.7463 2.82797C15.9955 3.03889 16.1949 3.22051 16.3444 3.37284L16.793 3.82984L16.3444 4.28683ZM15.9519 4.48017V3.12677H18.2882V4.48017H15.9519Z" fill="#686A6B"/>
</svg>
