<svg width="20" height="20" viewBox="0 0 20 20" fill="none" xmlns="http://www.w3.org/2000/svg">
<path d="M3.72846 4.18881C3.72846 3.30769 4.01963 2.55594 4.60196 1.93357C5.1843 1.31119 5.88768 1 6.7121 1H16.0164C16.8408 1 17.5442 1.31119 18.1265 1.93357C18.7088 2.55594 19 3.30769 19 4.18881V15.1189C19 16.1958 18.6467 17.1119 17.94 17.8671C17.2334 18.6224 16.3762 19 15.3686 19H4.63141C3.62377 19 2.76663 18.6224 2.05998 17.8671C1.35333 17.1119 1 16.1958 1 15.1189V8.42657C1 7.58741 1.26499 6.86364 1.79498 6.25525C2.32497 5.64685 2.96947 5.30769 3.72846 5.23776V4.18881ZM5.53435 4.18881V6.18182C5.53435 6.44755 5.44602 6.67483 5.26936 6.86364C5.09269 7.05245 4.88004 7.14685 4.63141 7.14685H3.98364C3.65649 7.14685 3.37514 7.27273 3.13959 7.52448C2.90403 7.77622 2.78626 8.07692 2.78626 8.42657V15.1189C2.78626 15.6643 2.96619 16.1294 3.32606 16.514C3.68593 16.8986 4.12105 17.0909 4.63141 17.0909H15.3686C15.879 17.0909 16.3141 16.8986 16.6739 16.514C17.0338 16.1294 17.2137 15.6643 17.2137 15.1189V4.18881C17.2137 3.83916 17.096 3.53846 16.8604 3.28671C16.6249 3.03497 16.3435 2.90909 16.0164 2.90909H6.7121C6.38495 2.90909 6.10687 3.03497 5.87786 3.28671C5.64885 3.53846 5.53435 3.83916 5.53435 4.18881ZM3.72846 6.18182C3.72846 5.93007 3.81679 5.70979 3.99346 5.52098C4.17012 5.33217 4.38277 5.23776 4.63141 5.23776C4.88004 5.23776 5.09269 5.33217 5.26936 5.52098C5.44602 5.70979 5.53435 5.93007 5.53435 6.18182V12.8741C5.53435 13.1399 5.44602 13.3671 5.26936 13.5559C5.09269 13.7448 4.88004 13.8392 4.63141 13.8392C4.38277 13.8392 4.17012 13.7448 3.99346 13.5559C3.81679 13.3671 3.72846 13.1399 3.72846 12.8741V6.18182ZM8.59651 7.14685C8.34787 7.14685 8.13522 7.05245 7.95856 6.86364C7.7819 6.67483 7.69357 6.44755 7.69357 6.18182C7.69357 5.93007 7.7819 5.70979 7.95856 5.52098C8.13522 5.33217 8.34787 5.23776 8.59651 5.23776H14.8975C15.1461 5.23776 15.3588 5.33217 15.5354 5.52098C15.7121 5.70979 15.8004 5.93007 15.8004 6.18182C15.8004 6.44755 15.7121 6.67483 15.5354 6.86364C15.3588 7.05245 15.1461 7.14685 14.8975 7.14685H8.59651ZM8.59651 10.6923C8.34787 10.6923 8.13522 10.5979 7.95856 10.4091C7.7819 10.2203 7.69357 9.99301 7.69357 9.72727C7.69357 9.47552 7.7819 9.25525 7.95856 9.06643C8.13522 8.87762 8.34787 8.78322 8.59651 8.78322H11.7372C11.9858 8.78322 12.1985 8.87762 12.3751 9.06643C12.5518 9.25525 12.6401 9.47552 12.6401 9.72727C12.6401 9.99301 12.5518 10.2203 12.3751 10.4091C12.1985 10.5979 11.9858 10.6923 11.7372 10.6923H8.59651Z" fill="#686A6B"/>
</svg>
