<svg width="22" height="22" viewBox="0 0 22 22" fill="none" xmlns="http://www.w3.org/2000/svg">
<path d="M20.1528 17.6092L15.5897 13.0451C16.5745 11.4372 16.9352 9.52392 16.6035 7.66781C16.2717 5.8117 15.2705 4.14181 13.7896 2.97465C12.3088 1.80749 10.4512 1.22419 8.56893 1.33529C6.68668 1.44639 4.9106 2.24419 3.57733 3.57745C2.24406 4.91072 1.44627 6.6868 1.33517 8.56905C1.22406 10.4513 1.80737 12.3089 2.97453 13.7898C4.14169 15.2706 5.81158 16.2718 7.66769 16.6036C9.5238 16.9354 11.4371 16.5746 13.045 15.5898L17.6091 20.153C17.7761 20.32 17.9744 20.4525 18.1926 20.5429C18.4109 20.6333 18.6448 20.6799 18.881 20.6799C19.1172 20.6799 19.3511 20.6333 19.5693 20.5429C19.7875 20.4525 19.9858 20.32 20.1528 20.153C20.3199 19.986 20.4524 19.7877 20.5428 19.5694C20.6332 19.3512 20.6798 19.1173 20.6798 18.8811C20.6798 18.6449 20.6332 18.411 20.5428 18.1927C20.4524 17.9745 20.3199 17.7762 20.1528 17.6092ZM3.51993 9.02188C3.51993 7.93372 3.8426 6.87 4.44715 5.96523C5.0517 5.06046 5.91097 4.35527 6.9163 3.93885C7.92163 3.52243 9.02786 3.41348 10.0951 3.62577C11.1624 3.83805 12.1427 4.36205 12.9121 5.1315C13.6816 5.90094 14.2056 6.88128 14.4179 7.94853C14.6302 9.01578 14.5212 10.122 14.1048 11.1273C13.6884 12.1327 12.9832 12.9919 12.0784 13.5965C11.1736 14.201 10.1099 14.5237 9.02176 14.5237C7.56311 14.522 6.16468 13.9418 5.13325 12.9104C4.10183 11.879 3.52163 10.4805 3.51993 9.02188Z" fill="white"/>
</svg>
